<?xml version="1.0" standalone="no"?><!DOCTYPE svg PUBLIC "-//W3C//DTD SVG 1.1//EN" "http://www.w3.org/Graphics/SVG/1.1/DTD/svg11.dtd"><svg t="1637214495571" class="icon" viewBox="0 0 1024 1024" version="1.1" xmlns="http://www.w3.org/2000/svg" p-id="2316" width="32" height="32" xmlns:xlink="http://www.w3.org/1999/xlink"><defs><style type="text/css"></style></defs><path d="M781.195876 619.995052A256.844536 256.844536 0 1 1 524.35134 363.150515 256.844536 256.844536 0 0 1 781.195876 619.995052z" fill="#FFD800" p-id="2317"></path><path d="M305.08866 831.973608a8.656495 8.656495 0 0 1-8.656495-8.656495v-83.081237a8.973196 8.973196 0 0 1 2.850309-6.545154 8.656495 8.656495 0 0 1 6.861856-2.111341c52.783505 6.334021 114.856907 9.18433 127.630515 3.378145 0-23.64701-2.11134-92.265567-2.216907-93.004536a8.973196 8.973196 0 0 1 2.533608-6.334021 8.656495 8.656495 0 0 1 6.228454-2.639175h25.019381l-25.230515-85.403712a8.656495 8.656495 0 0 1 0-4.328247v-11.717938c-0.738969-27.447423-1.583505-58.589691-15.835052-82.870103-49.616495-83.292371-152.966598-115.068041-231.086185-70.729897-39.270928 22.274639-63.340206 52.783505-72.630103 89.204124C102.4 542.72 153.177732 622.845361 158.983918 631.396289a9.501031 9.501031 0 0 1 1.583505 4.961649V823.42268a8.762062 8.762062 0 0 1-17.524124 0V638.891546C132.486598 622.845361 84.453608 541.242062 103.561237 463.122474c10.028866-42.226804 37.265155-75.585979 81.075464-100.394227 86.248247-48.983093 200.57732-14.357113 254.099794 77.063918 16.574021 28.186392 17.524124 61.651134 18.36866 91.209897v13.829278l28.503092 94.376907a8.445361 8.445361 0 0 1-1.372371 7.706392 8.762062 8.762062 0 0 1-6.967422 3.589279h-27.975258c0.633402 20.48 2.005773 69.990928 2.005773 86.881649a13.195876 13.195876 0 0 1-4.644948 9.923299c-15.518351 13.723711-91.737732 7.284124-132.803299 2.744742V823.42268a8.762062 8.762062 0 0 1-8.762062 8.550928z" fill="" p-id="2318"></path><path d="M399.782268 564.361237h-27.55299a8.762062 8.762062 0 1 1 0-17.418557h27.55299a8.762062 8.762062 0 1 1 0 17.418557zM411.71134 513.689072h-81.497732a8.762062 8.762062 0 0 1 0-17.524124H411.71134a8.762062 8.762062 0 0 1 0 17.524124zM270.884948 663.699794c-25.652784 0-45.710515-30.931134-45.710515-70.307629s20.057732-70.307629 45.710515-70.307629a8.762062 8.762062 0 0 1 0 17.418557c-13.40701 0-28.186392 21.746804-28.186391 52.783505s14.779381 52.783505 28.186391 52.783505a8.762062 8.762062 0 0 1 0 17.524124zM690.197113 727.567835H577.557113a8.762062 8.762062 0 1 1 0-17.418557h112.64a8.762062 8.762062 0 1 1 0 17.418557zM690.513814 816.455258H686.185567a8.762062 8.762062 0 0 1 0-17.418557h4.433814a8.762062 8.762062 0 1 1 0 17.418557z m-61.228866 0h-4.328247a8.762062 8.762062 0 1 1 0-17.418557h4.328247a8.762062 8.762062 0 1 1 0 17.418557z m-61.123299 0h-4.433814a8.762062 8.762062 0 1 1 0-17.418557h4.433814a8.762062 8.762062 0 0 1 0 17.418557z m-61.228865 0h-4.433815a8.762062 8.762062 0 0 1 0-17.418557h4.22268a8.762062 8.762062 0 1 1 0 17.418557zM723.028454 466.606186a8.762062 8.762062 0 0 1-8.656495-8.762062V327.257732a8.762062 8.762062 0 1 1 17.418556 0v130.586392a8.762062 8.762062 0 0 1-8.762061 8.762062z" fill="" p-id="2319"></path><path d="M862.482474 591.175258H707.298969a8.762062 8.762062 0 0 1 0-17.524124h155.183505a16.362887 16.362887 0 0 0 16.362887-16.468454v-253.360824a16.362887 16.362887 0 0 0-16.362887-16.468454H567.739381a16.468454 16.468454 0 0 0-16.468453 16.468454v253.360824a16.468454 16.468454 0 0 0 16.468453 16.468454h42.226805a8.762062 8.762062 0 0 1 0 17.524124h-42.226805a33.992577 33.992577 0 0 1-33.992577-33.992578v-253.360824a33.992577 33.992577 0 0 1 33.992577-33.887011H862.482474a33.88701 33.88701 0 0 1 33.887011 33.887011v253.360824A33.992577 33.992577 0 0 1 862.482474 591.175258z" fill="" p-id="2320"></path><path d="M611.127423 666.444536a8.12866 8.12866 0 0 1-3.800413-0.950103 8.762062 8.762062 0 0 1-4.961649-7.811959v-75.374845a8.762062 8.762062 0 0 1 17.524124 0v57.53402l82.97567-64.395876a8.656495 8.656495 0 1 1 10.556701 13.723712L616.51134 665.072165a8.550928 8.550928 0 0 1-5.383917 1.372371z" fill="" p-id="2321"></path></svg>