<?xml version="1.0" standalone="no"?>
<!DOCTYPE svg PUBLIC "-//W3C//DTD SVG 1.1//EN" "http://www.w3.org/Graphics/SVG/1.1/DTD/svg11.dtd" >
<!--
2013-9-30: Created.
-->
<svg>
<metadata>
Created by iconfont
</metadata>
<defs>

<font id="iconfont" horiz-adv-x="1024" >
  <font-face
    font-family="iconfont"
    font-weight="500"
    font-stretch="normal"
    units-per-em="1024"
    ascent="896"
    descent="-128"
  />
    <missing-glyph />
    
    <glyph glyph-name="bj_add" unicode="&#58930;" d="M734.72 401.92h-197.12v197.12c0 14.336-11.264 25.6-25.6 25.6s-25.6-11.264-25.6-25.6v-197.12h-197.12c-14.336 0-25.6-11.264-25.6-25.6s11.264-25.6 25.6-25.6h197.12v-197.12c0-14.336 11.264-25.6 25.6-25.6s25.6 11.264 25.6 25.6v197.12h197.12c14.336 0 25.6 11.264 25.6 25.6s-11.776 25.6-25.6 25.6z"  horiz-adv-x="1024" />

    
    <glyph glyph-name="bj_tuozhuai" unicode="&#58945;" d="M480-64l0 896 64 0L544-64zM480 832L480-64l64 0 0 896-64 0zM32 384l192-192 0 128 192 0 0 128-192 0 0 128zM992 384l-192-192 0 128-192 0 0 128 192 0 0 128z"  horiz-adv-x="1024" />

    
    <glyph glyph-name="bj_clomenu" unicode="&#59026;" d="M0 793.6c0 56.32 46.08 102.4 102.4 102.4h819.2c56.32 0 102.4-46.08 102.4-102.4s-46.08-102.4-102.4-102.4H102.4c-56.32 0-102.4 46.08-102.4 102.4z m0-409.6c0 56.32 46.08 102.4 102.4 102.4h819.2c56.32 0 102.4-46.08 102.4-102.4s-46.08-102.4-102.4-102.4H102.4c-56.32 0-102.4 46.08-102.4 102.4z m0-409.6c0 56.32 46.08 102.4 102.4 102.4h819.2c56.32 0 102.4-46.08 102.4-102.4s-46.08-102.4-102.4-102.4H102.4c-56.32 0-102.4 46.08-102.4 102.4z"  horiz-adv-x="1024" />

    
    <glyph glyph-name="bj_chgamo" unicode="&#59070;" d="M834.048 244.224L800.768 176.128h20.48v-19.456h-30.208l-15.36-31.744h40.96v-19.456h-46.592v-68.096h-42.496v68.096h-46.08V124.928h40.448l-15.872 31.744h-30.72V176.128h20.992l-34.816 68.096h49.152l38.4-90.624 36.864 90.624h48.128zM48.64 23.552c3.072 0 6.656 0.512 10.24 1.024l185.344 38.912c14.336 3.072 34.304 13.312 45.056 22.528L890.88 621.056c21.504 18.944 22.528 52.736 3.072 75.776l-107.52 123.392c-11.264 12.8-26.112 18.944-41.472 18.944-11.776 0-24.064-4.096-33.28-12.8L110.08 291.328c-10.752-9.216-23.04-28.16-27.136-41.984l-59.392-184.832c-7.168-24.576 3.584-40.96 25.088-40.96zM745.472 787.456c0.512 0 1.536-0.512 2.56-1.536l107.52-123.392c1.536-1.536 1.536-3.072 1.536-4.096L786.944 595.968 674.816 723.456l70.656 64z m-109.568-97.28l112.128-127.488-391.68-348.16-112.128 127.488 391.68 348.16zM132.096 233.472c1.536 5.12 8.704 15.872 12.8 19.456l61.44 54.784 112.128-127.488-62.976-55.808c-4.096-3.584-15.872-9.728-21.504-10.752l-150.528-31.232 48.64 151.04z m848.384-252.928h-936.96c-14.336 0-25.6-11.264-25.6-25.6s11.264-25.6 25.6-25.6h936.96c14.336 0 25.6 11.264 25.6 25.6s-11.776 25.6-25.6 25.6z"  horiz-adv-x="1024" />

    
    <glyph glyph-name="bj_alrcol" unicode="&#59027;" d="M255.488-87.552c-16.384 0-32.256 5.12-46.08 14.848-24.576 17.92-36.352 47.104-31.232 76.8l39.424 230.4c1.536 8.704-1.536 17.92-7.68 24.064l-167.424 163.84c-21.504 20.992-29.184 51.712-19.968 80.384 9.216 28.672 33.792 49.152 63.488 53.248l231.424 33.792c8.704 1.536 16.384 6.656 20.48 14.848l103.424 209.92c13.312 27.136 40.448 43.52 70.144 43.52s56.832-16.896 70.144-43.52l103.424-209.92c4.096-8.192 11.776-13.824 20.48-14.848l231.424-33.792c29.696-4.096 54.272-24.576 63.488-53.248 9.216-28.672 1.536-59.392-19.968-80.384L814.08 259.072c-6.656-6.144-9.216-15.36-7.68-24.064l39.424-230.4c5.12-29.696-6.656-58.88-31.232-76.8s-55.808-19.968-82.432-6.144l-207.36 109.056c-7.68 4.096-17.408 4.096-25.6 0L291.84-78.336c-11.264-6.144-24.064-9.216-36.352-9.216z"  horiz-adv-x="1024" />

    
    <glyph glyph-name="bj_phappy" unicode="&#59102;" d="M331.536757 575.291037c-34.545821 0-62.90433-28.35851-62.90433-62.90433s28.35851-62.90433 62.90433-62.90433 62.90433 28.35851 62.904331 62.90433c0.515609 34.545821-27.8429 62.90433-62.904331 62.90433zM698.650554 575.291037c-34.545821 0-62.90433-28.35851-62.90433-62.90433s28.35851-62.388721 62.90433-62.388721c35.06143 0 62.90433 28.35851 62.90433 62.90433S733.711984 575.291037 698.650554 575.291037zM758.461229 288.61228600000004c-11.859013 0-22.686808-7.21853-26.811682-18.561934-33.514602-89.716012-120.652568-150.042296-216.040282-150.042296s-183.041289 60.326284-216.555891 150.042296c-5.671702 14.952669-22.171198 22.686808-37.123867 17.015106-14.952669-5.671702-22.686808-22.171198-17.015106-37.123867 20.624371-54.654582 56.20141-101.059416 104.153071-134.574018 48.98288-34.545821 106.215509-52.592145 166.026184-52.592145 59.810675 0 117.558912 18.561934 166.026183 52.592145 47.436052 33.514602 83.528701 80.435045 104.153071 134.574018 5.671702 14.952669-2.062437 31.452165-17.015105 37.123867-3.093656 1.031219-6.70292 1.546828-9.796576 1.546828zM515.609265 880.531722c-274.304129 0-497.047331-222.227593-497.047331-497.047331 0-274.304129 222.227593-497.047331 497.047331-497.047332s497.047331 222.227593 497.047331 497.047332-222.743202 497.047331-497.047331 497.047331z m0-942.533736c-245.945619 0-445.486405 199.540785-445.486405 445.486405S270.179255 828.9707960000001 515.609265 828.9707960000001c245.43001 0 445.486405-199.540785 445.486405-445.486405 0-245.43001-199.540785-445.486405-445.486405-445.486405z"  horiz-adv-x="1031" />

    
    <glyph glyph-name="bj_calculator" unicode="&#59080;" d="M857.6 730.624L132.608 5.632c-9.728-9.728-9.728-25.6 0-35.328 9.728-9.728 25.6-9.728 35.328 0L892.416 695.296c9.728 9.728 9.728 25.6 0 35.328-9.728 9.728-25.088 9.728-34.816 0zM916.992 245.76h-336.896c-13.824 0-25.088-11.264-25.088-24.576 0-13.824 11.264-24.576 25.088-24.576h336.896c13.824 0 24.576 11.264 24.576 24.576 0 13.824-10.752 24.576-24.576 24.576zM916.992 74.24h-336.896c-13.824 0-25.088-11.264-25.088-24.576 0-13.824 11.264-24.576 25.088-24.576h336.896c13.824 0 24.576 11.264 24.576 24.576 0 13.312-10.752 24.576-24.576 24.576zM444.416 568.32H107.008c-13.824 0-24.576-11.264-24.576-24.576 0-13.824 11.264-24.576 24.576-24.576h336.896c13.824 0 25.088 11.264 25.088 24.576 0 13.312-11.264 24.576-24.576 24.576zM300.544 374.784V712.192c0 13.824-11.264 24.576-24.576 24.576-13.824 0-24.576-11.264-24.576-24.576v-336.896c0-13.824 11.264-24.576 24.576-24.576 13.312-0.512 24.576 10.752 24.576 24.064z"  horiz-adv-x="1024" />

    
    <glyph glyph-name="bj_alrlike" unicode="&#59028;" d="M939.144 726.288c-99.433 99.432-255.61 99.432-349.316 0l-69.238-69.239-71.321 71.321c-98.392 98.392-254.048 98.392-347.754-1.562-91.103-91.103-91.103-244.677 0-341.507l123.9-123.9 244.157-244.156 51.018-51.018 51.018 51.018L815.764 261.4 938.103 383.22c92.665 92.665 92.665 245.198 1.04 343.069z"  horiz-adv-x="1041" />

    
    <glyph glyph-name="bj_calendar" unicode="&#59090;" d="M480.256 293.888h64c17.92 0 31.744 14.336 31.744 31.744 0 17.92-14.336 31.744-31.744 31.744h-64c-17.92 0-31.744-14.336-31.744-31.744-0.512-17.92 13.312-31.744 31.744-31.744z m0-128h64c17.92 0 31.744 14.336 31.744 31.744 0 17.92-14.336 31.744-31.744 31.744h-64c-17.92 0-31.744-14.336-31.744-31.744-0.512-17.92 13.312-31.744 31.744-31.744z m351.744 576h-128v31.744c0 17.92-14.336 31.744-31.744 31.744s-31.744-14.336-31.744-31.744v-31.744h-256v31.744c0 17.92-14.336 31.744-31.744 31.744s-31.744-14.336-31.744-31.744v-31.744h-128c-70.656 0-128-57.856-128-128v-512c0-70.656 57.344-128 128-128h640c70.656 0 128 57.344 128 128v512c-1.024 70.144-58.88 128-129.024 128z m64-640c0-35.328-28.672-64-64-64h-640c-35.328 0-64 28.672-64 64v384h768v-384z m0 448H128V613.888C128 649.216 156.672 677.888 192 677.888h128v-31.744c0-17.92 14.336-31.744 31.744-31.744s31.744 13.824 31.744 31.744V677.888h256v-31.744c0-17.92 14.336-31.744 31.744-31.744s31.744 13.824 31.744 31.744V677.888h128c35.328 0 64-28.672 64-64V549.888zM287.744 165.888h64c17.92 0 31.744 14.336 31.744 31.744 0 17.92-14.336 31.744-31.744 31.744H287.744c-17.92 0-31.744-14.336-31.744-31.744 0-17.92 14.336-31.744 31.744-31.744z m384 128h64c17.92 0 31.744 14.336 31.744 31.744 0 17.92-14.336 31.744-31.744 31.744h-64c-17.92 0-31.744-14.336-31.744-31.744 0-17.92 14.336-31.744 31.744-31.744z m-384 0h64c17.92 0 31.744 14.336 31.744 31.744 0 17.92-14.336 31.744-31.744 31.744H287.744c-17.92 0-31.744-14.336-31.744-31.744 0-17.92 14.336-31.744 31.744-31.744z m384-128h64c17.92 0 31.744 14.336 31.744 31.744 0 17.92-14.336 31.744-31.744 31.744h-64c-17.92 0-31.744-14.336-31.744-31.744 0-17.92 14.336-31.744 31.744-31.744z"  horiz-adv-x="1024" />

    
    <glyph glyph-name="bj_chgnum" unicode="&#59071;" d="M608.768 34.816V245.248h-34.304c0-2.048-0.512-4.608-1.536-8.192-2.048-6.144-4.608-11.264-8.192-14.848-5.12-5.632-11.776-9.216-20.48-11.264-5.12-1.024-14.336-2.048-27.136-2.56v-28.16h49.664v-144.896h41.984v-0.512z m113.664 85.504c-22.016-15.872-35.84-30.72-41.984-44.544-6.144-12.288-9.216-26.112-9.728-41.472h143.872v36.352h-91.648c2.56 4.096 5.632 8.192 9.728 11.264 3.584 3.072 10.752 8.704 21.504 15.872l16.384 11.776c13.824 9.728 24.064 18.944 30.208 26.624 9.216 12.288 13.824 26.112 13.824 41.472 0 20.48-6.656 36.864-19.968 49.152-13.312 12.288-30.72 18.432-53.248 18.432-28.16 0-47.616-10.24-58.88-31.232-5.632-11.264-9.216-25.6-9.728-43.52h39.936c0.512 11.776 2.048 20.48 4.608 25.6 4.608 9.216 13.312 13.824 25.6 13.824 9.216 0 16.384-3.072 20.992-8.704s7.168-13.312 7.168-22.016c0-10.752-4.096-20.992-12.8-30.208-4.608-5.12-16.896-14.848-35.84-28.672z m156.672 121.856c-7.68-2.56-13.824-6.144-19.456-11.264-7.168-7.168-12.8-14.336-15.872-22.528-3.072-9.216-5.12-19.456-5.12-29.696h38.4c0 10.24 2.048 18.432 6.656 24.576 4.608 6.144 11.776 9.216 21.504 9.216 8.704 0 14.848-2.56 19.968-7.68s7.168-11.776 7.168-19.456c0-12.288-4.608-20.48-13.824-24.576-5.12-2.56-14.848-3.584-28.16-4.096v-29.696c13.824 0 23.552-1.536 30.208-4.096 11.264-4.608 16.896-13.824 16.896-27.648 0-10.24-3.072-18.432-9.216-24.064-6.144-5.632-13.312-8.192-20.992-8.192-13.312 0-22.528 5.12-27.136 15.36-2.56 5.632-4.096 12.288-4.096 20.992h-40.448c0.512-16.896 4.096-30.208 10.24-40.448 11.776-19.456 32.256-29.184 61.952-29.184 24.064 0 42.496 6.656 54.784 20.48 12.288 13.312 18.432 29.184 18.432 47.104 0 16.896-5.12 30.208-15.872 39.936-7.168 6.656-12.288 9.728-16.384 9.728 5.12 2.048 9.728 5.632 14.336 10.752 7.168 8.704 11.264 18.944 11.264 31.232 0 17.408-6.144 31.232-18.432 41.984-12.288 10.24-28.672 15.36-48.64 15.36-11.776-0.512-20.992-1.536-28.16-4.096zM49.152 23.04c3.072 0 6.656 0.512 10.24 1.024l185.344 38.912c14.336 3.072 34.304 13.312 45.056 22.528L891.392 620.544c21.504 18.944 22.528 52.736 3.072 75.776l-107.52 123.392c-11.264 12.8-26.112 18.944-41.472 18.944-11.776 0-24.064-4.096-33.28-12.8L110.592 290.816c-10.752-9.216-23.04-28.16-27.136-41.984l-59.392-184.832c-7.68-24.064 3.584-40.96 25.088-40.96zM745.984 787.456c0.512 0 1.536-0.512 2.56-1.536l107.52-123.392c1.536-1.536 1.536-3.072 1.536-4.096L787.456 595.968 675.328 723.456l70.656 64zM636.416 689.664l112.128-127.488-391.68-348.16-112.128 127.488 391.68 348.16zM132.096 233.472c1.536 5.12 8.704 15.872 12.8 19.456l61.44 54.784 112.128-127.488-62.976-55.808c-4.096-3.584-15.872-9.728-21.504-10.752l-150.528-31.232 48.64 151.04z m848.384-252.928h-936.96c-14.336 0-25.6-11.264-25.6-25.6s11.264-25.6 25.6-25.6h936.96c14.336 0 25.6 11.264 25.6 25.6s-11.264 25.6-25.6 25.6z"  horiz-adv-x="1024" />

    
    <glyph glyph-name="bj_close" unicode="&#59029;" d="M207.872 71.68c11.264-11.264 28.672-11.264 39.936 0l261.632 261.632 267.264-261.632c11.264-11.264 28.672-11.264 39.936 0s11.264 28.672 0 39.936L531.968 396.288c-11.264 11.264-28.672 11.264-39.936 0l-284.672-284.672c-10.752-11.264-10.752-28.16 0.512-39.936zM207.872 381.952c11.264-11.264 28.672-11.264 39.936 0l261.632 261.632 267.264-261.632c11.264-11.264 28.672-11.264 39.936 0s11.264 28.672 0 39.936L531.968 706.56c-11.264 11.264-28.672 11.264-39.936 0L207.36 421.888c-10.752-11.264-10.752-28.16 0.512-39.936z"  horiz-adv-x="1024" />

    
    <glyph glyph-name="bj_correct" unicode="&#59032;" d="M509.960159 896C228.462151 896 0 667.537849 0 386.039841s228.462151-509.960159 509.960159-509.96016 509.960159 228.462151 509.96016 509.96016c0 282.007968-228.462151 509.960159-509.96016 509.960159z m271.808765-402.868526l-305.466135-294.247012c-4.079681-4.079681-8.669323-7.139442-13.768924-9.689243-19.378486-13.768924-45.896414-11.729084-63.23506 5.099602L268.749004 325.864542c-19.378486 19.378486-19.378486 50.486056 0 69.354582 19.378486 19.378486 50.486056 19.378486 69.354582 0l98.42231-98.422311L712.414343 562.486056c19.378486 19.378486 50.486056 19.378486 69.354581 0 19.378486-18.868526 19.378486-49.976096 0-69.354582z"  horiz-adv-x="1024" />

    
    <glyph glyph-name="bj_cloudy" unicode="&#59048;" d="M659.968 634.88c-5.632 0-10.752 4.608-10.752 10.752V713.728c0 5.632 4.608 10.752 10.752 10.752 5.632 0 10.752-4.608 10.752-10.752V645.632c0-5.632-4.608-10.752-10.752-10.752z m119.808-24.064c-2.048-3.072-5.632-5.12-9.216-5.12-1.536 0-3.584 0.512-5.12 1.536-5.12 3.072-6.656 9.216-4.096 14.336l33.792 58.88c3.072 5.12 9.216 6.656 14.336 4.096 5.12-3.072 6.656-9.216 4.096-14.336l-33.792-59.392z m66.56-66.56l58.88 33.792c5.12 3.072 11.776 1.024 14.336-4.096 3.072-5.12 1.024-11.264-3.584-14.336l-58.88-33.792c-1.536-1.024-3.584-1.536-5.12-1.536-3.584 0-7.168 2.048-9.216 5.12-3.584 5.632-1.536 11.776 3.584 14.848z m24.064-119.808c0 5.632 4.608 10.752 10.752 10.752h68.096c5.632 0 10.752-4.608 10.752-10.752 0-5.632-4.608-10.752-10.752-10.752h-68.096c-6.144 0.512-10.752 5.12-10.752 10.752z m-13.824-101.376l58.88-33.792c5.12-3.072 6.656-9.216 3.584-14.336-2.048-3.584-5.632-5.12-9.216-5.12-2.048 0-3.584 0.512-5.12 1.536l-58.88 33.792c-5.12 3.072-6.656 9.216-4.096 14.336 3.584 5.12 10.24 6.656 14.848 3.584zM64.512 275.968c0-128 103.936-231.936 231.936-231.936h322.56c113.152 0 204.8 92.16 204.8 204.8 0 26.624-5.632 52.736-15.36 76.8 18.944 28.672 30.208 62.464 30.208 99.328 0 98.816-80.384 179.2-179.2 179.2-10.752 0-20.992-1.024-31.232-3.072-41.472 49.664-103.936 80.896-173.568 80.896-108.544 0-201.728-77.824-222.72-183.296-0.512 0-1.024-0.512-1.536-0.512-3.584-1.024-7.68-2.56-11.264-3.584-2.56-1.024-5.632-2.048-8.192-3.072-3.584-1.536-7.68-3.072-11.264-4.608-2.56-1.024-4.608-2.048-6.656-3.072-4.096-2.048-8.192-4.096-11.776-6.144-1.536-1.024-2.56-1.536-4.096-2.56-46.592-28.16-82.432-71.68-100.352-123.904 0-0.512 0-0.512-0.512-0.512-1.536-4.608-3.072-9.216-4.096-14.336-0.512-2.048-1.024-4.608-1.536-6.656-1.024-4.096-2.048-7.68-2.56-11.776-0.512-3.584-1.024-7.68-1.536-11.264-0.512-3.072-1.024-6.144-1.024-9.216-1.024-7.168-1.024-14.336-1.024-21.504z m720.384 93.184c-25.088 34.304-60.928 61.44-102.912 74.752 0 3.584 0.512 7.68 0.512 10.752 0 38.4-9.728 74.752-26.624 106.496 1.536 0 3.072 0.512 4.096 0.512 75.776 0 137.216-61.44 137.216-137.216 0-19.968-5.12-38.4-12.288-55.296zM106.496 275.968c0 6.144 0.512 11.776 1.024 17.92 0 2.56 0.512 5.12 1.024 8.192 0.512 3.072 1.024 6.144 1.536 8.704 0.512 3.584 1.536 7.168 2.56 10.752 0.512 1.536 1.024 3.584 1.536 5.12 1.024 4.096 2.56 8.192 3.584 12.288 0.512 0.512 0.512 1.536 1.024 2.048 10.752 29.696 28.672 55.808 52.224 76.8 3.584 3.072 7.68 6.656 11.264 9.216 0.512 0.512 1.024 1.024 2.048 1.536 3.584 2.56 7.168 5.12 11.264 7.68 1.024 0.512 2.048 1.024 3.072 2.048 3.584 2.048 7.168 4.608 11.264 6.144 1.024 0.512 2.56 1.024 3.584 1.536 12.288 6.144 25.088 10.752 38.4 14.336 1.536 0.512 3.072 1.024 5.12 1.024l2.56 0.512c12.288 2.56 24.576 3.584 37.376 3.584 43.008 0 83.456-13.824 117.248-40.448 9.216-7.168 22.528-5.632 29.696 3.584 7.168 9.216 5.632 22.528-3.584 29.696-40.96 32.256-90.624 49.664-143.36 49.664-6.144 0-12.288-0.512-18.432-1.024 22.528 77.312 94.208 132.608 177.152 132.608 101.888 0 184.832-82.944 184.832-184.832 0-4.096 0-7.68-0.512-11.776 0-3.584-0.512-7.68-1.024-12.288l-1.024-8.192c-5.12-30.208-17.92-58.88-37.888-83.456-7.168-9.216-6.144-22.528 3.072-29.696 3.584-3.072 8.192-4.608 13.312-4.608 6.144 0 12.288 2.56 16.384 7.68 20.992 26.112 35.328 56.32 43.52 88.576 62.464-23.552 105.984-83.968 105.984-152.064 0-89.6-72.704-162.816-162.816-162.816h-322.56c-104.96 0-190.464 85.504-190.464 189.952z"  horiz-adv-x="1024" />

    
    <glyph glyph-name="bj_col" unicode="&#59031;" d="M256.25677-89.997994c-16.4333 0-32.353059 5.135406-46.218656 14.892678-24.64995 17.973922-36.461384 47.245737-31.325978 77.031093l39.542628 231.09328c1.540622 8.730191-1.540622 17.973922-7.703109 24.136409L42.623872 420.974925c-21.568706 21.055165-29.271815 51.867603-20.028085 80.625877s33.893681 49.2999 63.679037 53.408225l96.032097 13.865597c13.865597 2.054162 27.217653-7.703109 29.271815-21.568706 2.054162-13.865597-7.703109-27.217653-21.568706-29.271816l-96.032096-13.865596c-10.784353-1.540622-19.001003-8.730191-22.082247-18.487463s-0.513541-20.541625 6.676028-28.244734L246.499498 294.130391c18.487462-17.973922 27.217653-44.164493 22.595788-69.841524l-39.542628-231.09328c-2.054162-10.270812 2.054162-20.541625 10.784353-26.704113s19.514544-7.189569 28.758275-2.054162l207.983952 109.384152c23.109328 11.811434 50.326981 11.811434 73.436309 0l207.983951-109.384152c9.243731-5.135406 20.028084-4.108325 28.758275 2.054162s12.838516 16.4333 10.784353 26.704113l-39.542628 231.09328c-4.621866 25.677031 4.108325 51.354062 22.595788 69.841524l167.927783 163.819459c7.703109 7.189569 10.270812 17.973922 6.676028 28.244734s-11.297894 16.946841-22.082246 18.487462l-232.120362 33.893681c-25.677031 3.594784-47.759278 20.028084-59.057171 43.137412l-103.735206 210.551655c-4.621866 9.757272-13.865597 15.406219-24.64995 15.406219-10.784353 0-20.028084-5.648947-24.649949-15.406219l-103.735206-210.551655c-6.162487-12.838516-21.568706-17.973922-34.407222-11.811434-12.838516 6.162487-17.973922 21.568706-11.811434 34.407222l103.735206 210.551655c13.352056 27.217653 40.569709 43.650953 70.355065 43.650953 30.298897 0 57.003009-16.946841 70.355065-43.650953l103.735206-210.551655c4.108325-8.21665 11.811434-13.865597 20.541625-14.892678l232.120361-33.893681c29.785356-4.108325 54.435306-24.64995 63.679037-53.408225s1.540622-59.570712-20.028085-80.625878l-167.414242-164.332999c-6.676028-6.162487-9.243731-15.406219-7.70311-24.136409l39.542628-231.09328c5.135406-29.785356-6.676028-59.057172-31.325978-77.031093s-55.975928-20.028084-82.68004-6.162487L526.379137 28.116349c-7.703109 4.108325-17.460381 4.108325-25.677031 0L292.718154-81.267803c-11.297894-6.162487-24.136409-8.730191-36.461384-8.730191z"  horiz-adv-x="1027" />

    
    <glyph glyph-name="bj_dayknot" unicode="&#59091;" d="M941.568 748.032h-104.96v51.2c0 14.336-11.264 25.6-25.6 25.6s-25.6-11.264-25.6-25.6v-51.2H240.128v51.2c0 14.336-11.264 25.6-25.6 25.6s-25.6-11.264-25.6-25.6v-51.2H83.968c-35.84 0-65.024-29.184-65.024-51.712V68.608c0-48.64 29.184-77.824 65.024-77.824h857.088c35.84 0 65.024 29.184 65.024 77.824V696.32c0 22.528-29.184 51.712-64.512 51.712zM83.968 696.832h104.96V637.952c0-14.336 11.264-25.6 25.6-25.6s25.6 11.264 25.6 25.6V696.832h545.28V637.952c0-14.336 11.264-25.6 25.6-25.6s25.6 11.264 25.6 25.6V696.832h104.96c7.168 0 13.824-6.144 13.824-13.824v-136.192H70.656V683.008c0 7.68 6.144 13.824 13.312 13.824z m857.6-654.848H84.48c-7.168 0-13.824 6.144-13.824 13.824v440.32h884.736v-440.32c-0.512-7.68-6.656-13.824-13.824-13.824z m-246.272 351.232l-222.72-222.72-101.376 101.376c-10.24 10.24-26.112 10.24-36.352 0s-10.24-26.112 0-36.352l119.296-119.296c5.12-5.12 11.776-7.68 17.92-7.68 6.144 0 13.312 2.56 17.92 7.68l240.64 240.64c10.24 10.24 10.24 26.112 0 36.352-8.704 9.728-25.088 9.728-35.328 0z"  horiz-adv-x="1024" />

    
    <glyph glyph-name="bj_delete" unicode="&#59042;" d="M896 554.667c-25.6 0-42.667-17.067-42.667-42.667v-554.667H170.667V512c0 25.6-17.067 42.667-42.667 42.667S85.333 537.6 85.333 512v-597.333c0-25.6 17.067-42.667 42.667-42.667h768c25.6 0 42.667 17.067 42.667 42.667V512c0 25.6-17.067 42.667-42.667 42.667z m-512-512c-25.6 0-42.667 17.066-42.667 42.666V426.667c0 25.6 17.067 42.666 42.667 42.666s42.667-17.066 42.667-42.666v-341.334c0-25.6-17.067-42.666-42.667-42.666z m256 0c-25.6 0-42.667 17.066-42.667 42.666V426.667c0 25.6 17.067 42.666 42.667 42.666s42.667-17.066 42.667-42.666v-341.334c0-25.6-17.067-42.666-42.667-42.666z m341.333 682.666h-204.8V836.267C776.533 870.4 750.933 896 716.8 896H324.267c-34.134 0-59.734-25.6-59.734-59.733v-110.934H42.667C17.067 725.333 0 708.267 0 682.667S17.067 640 42.667 640h938.666c25.6 0 42.667 17.067 42.667 42.667s-17.067 42.666-42.667 42.666z m-631.466 0V810.667H691.2v-85.334H349.867z"  horiz-adv-x="1024" />

    
    <glyph glyph-name="bj_delete1" unicode="&#59081;" d="M512 880.64c-272.384 0-493.568-220.672-493.568-493.568 0-272.384 220.672-493.568 493.568-493.568s493.568 220.672 493.568 493.568-221.184 493.568-493.568 493.568z m0-935.936c-244.224 0-442.368 198.144-442.368 442.368S268.288 829.44 512 829.44s442.368-198.144 442.368-442.368c0-243.712-198.144-442.368-442.368-442.368zM306.176 155.648c-6.656 0-13.312 2.56-17.92 7.68-10.24 10.24-10.24 26.112 0 36.352L699.904 611.328c10.24 10.24 26.112 10.24 36.352 0s10.24-26.112 0-36.352l-411.648-411.648c-5.12-5.12-11.776-7.68-18.432-7.68zM280.576 593.408c0 6.656 2.56 13.312 7.68 17.92 10.24 10.24 26.112 10.24 36.352 0l411.648-411.648c10.24-10.24 10.24-26.112 0-36.352s-26.112-10.24-36.352 0L288.256 574.976c-5.12 5.12-7.68 11.776-7.68 18.432z"  horiz-adv-x="1024" />

    
    <glyph glyph-name="bj_discount" unicode="&#59072;" d="M512 826.368c243.712 0 442.368-198.144 442.368-442.368 0-243.712-198.144-442.368-442.368-442.368s-442.368 198.144-442.368 442.368S268.288 826.368 512 826.368m0 51.2C239.616 877.568 18.432 656.896 18.432 384c0-272.384 220.672-493.568 493.568-493.568s493.568 220.672 493.568 493.568S784.384 877.568 512 877.568z m-205.824-724.48c-6.656 0-13.312 2.56-17.92 7.68-10.24 10.24-10.24 26.112 0 36.352l411.648 411.648c10.24 10.24 26.112 10.24 36.352 0s10.24-26.112 0-36.352L324.608 160.768c-5.12-5.12-11.776-7.68-18.432-7.68z m72.704 266.24c-54.272 0-98.304 44.032-98.304 98.304s44.032 98.304 98.304 98.304 98.304-44.032 98.304-98.304-44.032-98.304-98.304-98.304z m0 144.896c-26.112 0-47.104-20.992-47.104-47.104s20.992-47.104 47.104-47.104 47.104 20.992 47.104 47.104-21.504 47.104-47.104 47.104z m266.24-411.136c-54.272 0-98.304 44.032-98.304 98.304s44.032 98.304 98.304 98.304 98.304-44.032 98.304-98.304-44.032-98.304-98.304-98.304z m0 144.896c-26.112 0-47.104-20.992-47.104-47.104s20.992-47.104 47.104-47.104 47.104 20.992 47.104 47.104-20.992 47.104-47.104 47.104z"  horiz-adv-x="1024" />

    
    <glyph glyph-name="bj_delete2" unicode="&#59107;" d="M558.403259 384l174.663951 174.663951c10.427699 10.427699 10.427699 26.590631 0 37.01833s-26.590631 10.427699-37.01833 0L521.384929 421.01833l-174.663951 174.663951c-10.427699 10.427699-26.590631 10.427699-37.01833 0s-10.427699-26.590631 0-37.01833l174.663951-174.663951-174.663951-174.663951c-10.427699-10.427699-10.427699-26.590631 0-37.01833 5.213849-5.213849 11.991853-7.820774 18.248472-7.820774s13.556008 2.606925 18.248473 7.820774L521.384929 346.98167l174.663951-174.663951c5.213849-5.213849 11.991853-7.820774 18.248472-7.820774s13.556008 2.606925 18.248473 7.820774c10.427699 10.427699 10.427699 26.590631 0 37.01833l-174.142566 174.663951z"  horiz-adv-x="1042" />

    
    <glyph glyph-name="bj_doubt" unicode="&#59033;" d="M512.004088 896C229.43323 896 0.004088 666.570858 0.004088 384s229.429142-512 512-512S1024.004088 101.429142 1024.004088 384 794.574946 896 512.004088 896z m-3.065868-820.630739c-35.768463 0-64.894212 28.61477-64.894212 63.872256s29.125749 63.872255 64.894212 63.872255c35.768463 0 64.894212-28.61477 64.894211-63.872255 0.510978-35.257485-28.61477-63.872255-64.894211-63.872256zM684.203689 436.11976c-12.774451-19.928144-39.856287-47.520958-81.245509-81.756487-21.461078-17.884232-34.746507-32.191617-39.856288-43.433133-5.10978-10.730539-7.664671-30.147705-7.153692-58.251497h-92.487026c0 13.285429-0.510978 21.461078-0.510978 24.526946 0 30.147705 5.10978 54.674651 14.818363 74.091816 9.708583 19.417166 29.636727 41.389222 59.784431 65.40519 29.636727 24.015968 47.520958 39.856287 53.141717 47.520958 8.686627 11.752495 13.285429 25.037924 13.285429 39.345309 0 19.928144-8.175649 36.790419-24.015968 51.097805s-37.301397 20.9501-64.383234 20.950099c-26.05988 0-47.520958-7.153693-64.894211-21.972055-17.373253-14.818363-32.702595-47.00998-35.768464-67.449102-3.576846-18.906188-94.530938-27.081836-93.508982 11.241517 1.021956 38.323353 20.9501 80.223553 55.185629 110.371257 34.235529 30.147705 79.201597 45.477046 134.898204 45.477046 58.762475 0 105.261477-15.329341 140.007984-45.988024 34.746507-30.658683 52.11976-66.427146 52.11976-106.794411-0.510978-22.994012-7.153693-43.944112-19.417165-64.383234z"  horiz-adv-x="1026" />

    
    <glyph glyph-name="bj_down" unicode="&#59036;" d="M816.128 546.304c-11.264 11.264-28.672 11.264-39.936 0l-261.632-261.632-267.264 261.632c-11.264 11.264-28.672 11.264-39.936 0s-11.264-28.672 0-39.936l284.672-284.672c11.264-11.264 28.672-11.264 39.936 0l284.672 284.672c10.752 11.264 10.752 28.16-0.512 39.936z"  horiz-adv-x="1024" />

    
    <glyph glyph-name="bj_error" unicode="&#59034;" d="M512 896c-282.624 0-512-229.376-512-512s229.376-512 512-512 512 229.376 512 512-229.376 512-512 512z m192.512-631.296c20.48-20.48 20.48-53.248 0-73.216-10.24-10.24-23.552-15.36-36.864-15.36-13.312 0-26.624 5.12-36.864 15.36L512 310.784 392.704 191.488c-10.24-10.24-23.552-15.36-36.864-15.36-13.312 0-26.624 5.12-36.864 15.36-20.48 20.48-20.48 53.248 0 73.216l119.296 119.296-119.296 119.296c-20.48 20.48-20.48 53.248 0 73.216s53.248 20.48 73.216 0L512 457.216l119.296 119.296c20.48 20.48 53.248 20.48 73.216 0 20.48-20.48 20.48-53.248 0-73.216l-119.296-119.296 119.296-119.296z"  horiz-adv-x="1024" />

    
    <glyph glyph-name="bj_exit" unicode="&#59085;" d="M512-108.032c-269.824 0-488.96 219.136-488.96 488.96 0 93.696 26.624 184.32 76.8 262.656C148.48 720.384 217.088 781.312 298.496 821.248c12.8 6.144 28.16 1.024 34.304-11.776 6.144-12.8 1.024-28.16-11.776-34.304C168.96 700.928 74.24 549.888 74.24 380.928c0-241.152 196.608-437.76 437.76-437.76s437.76 196.608 437.76 437.76c0 168.96-94.72 320-246.784 393.728-12.8 6.144-17.92 21.504-11.776 34.304s21.504 17.92 34.304 11.776c81.408-39.424 150.016-100.864 198.656-177.152 50.176-78.336 76.8-169.472 76.8-262.656 0-269.312-219.136-488.96-488.96-488.96zM512 568.832c-14.336 0-25.6 11.264-25.6 25.6v256c0 14.336 11.264 25.6 25.6 25.6s25.6-11.264 25.6-25.6v-256c0-14.336-11.264-25.6-25.6-25.6z"  horiz-adv-x="1024" />

    
    <glyph glyph-name="bj_export" unicode="&#59035;" d="M512 896c-282.624 0-512-229.376-512-512s229.376-512 512-512 512 229.376 512 512-229.376 512-512 512z m235.52-690.688c0-44.032-35.84-79.872-80.896-79.872H343.04c-45.056 0-80.896 35.328-80.896 79.872v358.4c0 44.032 35.84 79.872 80.896 79.872h202.24v-39.936h-204.8c-22.016 0-40.448-17.92-40.448-39.936v-358.4c0-22.016 18.432-39.936 40.448-39.936h328.704c22.016 0 40.448 17.92 40.448 39.936V284.672h37.888v-79.36z m9.216 205.824c-3.584-3.072-9.728-3.072-13.312-0.512l-61.44 37.376C613.376 321.536 517.12 239.104 373.76 366.592v13.824c96.256-50.688 160.768-7.68 228.864 116.224L542.72 533.504c-4.608 2.56-7.168 7.68-6.144 12.8 0 2.048 0.512 3.072 1.024 4.608 1.024 2.56 4.608 5.12 7.68 5.632L716.8 625.664c6.144 2.048 13.312-2.56 15.36-9.728l29.696-192c0.512-4.608-1.536-9.728-5.12-12.8z"  horiz-adv-x="1024" />

    
    <glyph glyph-name="bj_eapansion" unicode="&#59043;" d="M938.667 810.667v-853.334H85.333V810.667h853.334m0 85.333H85.333C34.133 896 0 861.867 0 810.667v-853.334C0-93.867 34.133-128 85.333-128h853.334c51.2 0 85.333 34.133 85.333 85.333V810.667C1024 861.867 989.867 896 938.667 896z m-85.334-196.267l-25.6 25.6H554.667c-25.6 0-42.667-17.066-42.667-42.666S529.067 640 554.667 640h153.6l-153.6-153.6c-17.067-17.067-17.067-42.667 0-59.733 8.533-8.534 17.066-8.534 34.133-8.534s25.6 0 34.133 8.534L768 580.267v-153.6c0-25.6 17.067-42.667 42.667-42.667s42.666 17.067 42.666 42.667V699.733zM469.333 128h-153.6l153.6 153.6c17.067 17.067 17.067 42.667 0 59.733-8.533 8.534-17.066 17.067-25.6 17.067s-25.6 0-34.133-8.533L256 187.733v153.6c0 25.6-17.067 42.667-42.667 42.667s-42.666-17.067-42.666-42.667v-273.066l25.6-25.6h273.066c25.6 0 42.667 17.066 42.667 42.666S494.933 128 469.333 128z"  horiz-adv-x="1024" />

    
    <glyph glyph-name="bj_handlelist" unicode="&#59073;" d="M1005.568 837.12c0 22.528-17.92 40.448-40.448 40.448l-409.6-0.512L43.008 364.544c-32.256-32.256-32.256-84.48 0-116.736l332.8-332.8c16.384-16.384 37.376-24.064 58.368-24.064 20.992 0 42.496 8.192 58.368 24.064L1005.056 427.52l-0.512 0.512 1.024 409.088z m-51.712-389.12L456.704-49.152c-6.144-6.144-13.824-9.216-22.016-9.216-8.192 0-16.384 3.072-22.016 9.216l-332.8 332.8c-6.144 6.144-9.216 13.824-9.216 22.016s3.072 16.384 9.216 22.016l497.664 497.664 377.344 0.512-1.024-377.856z m-178.688 87.04c61.952 0 112.128 50.176 112.128 112.128s-50.176 112.128-112.128 112.128S663.04 709.12 663.04 647.168s50.688-112.128 112.128-112.128z m0 172.544c33.28 0 60.928-27.136 60.928-60.928S808.96 585.728 775.168 585.728c-33.792 0-60.928 27.136-60.928 60.928s27.648 60.928 60.928 60.928z"  horiz-adv-x="1024" />

    
    <glyph glyph-name="bj_goods" unicode="&#59087;" d="M351.744 56.832c-47.104 0-85.504-38.4-85.504-85.504s38.4-85.504 85.504-85.504 85.504 38.4 85.504 85.504c0.512 22.528-8.192 44.032-24.576 59.904-15.872 16.384-37.376 25.6-60.928 25.6zM394.24-28.672c0-23.552-18.944-42.496-42.496-42.496s-42.496 18.944-42.496 42.496 18.944 42.496 42.496 42.496 42.496-19.456 42.496-42.496zM345.6 684.032c1.024-7.168 6.144-13.824 12.8-17.408 6.656-3.584 14.336-3.584 20.992-0.512l18.432 8.704-6.144-39.936h48.64l9.728 77.824c1.024 8.704-2.56 17.408-9.728 22.528-7.168 5.12-16.384 6.144-24.576 2.56l-30.72-14.336-11.264 65.024 78.848 45.056 52.224-7.68c15.872-38.4 51.2-65.024 92.672-69.12 40.448-8.192 82.432 6.144 109.056 37.888l52.224-7.68 61.44-66.56L790.016 662.528l-24.576 23.04c-6.656 6.144-15.872 7.68-24.064 4.608-8.704-3.072-14.336-10.24-15.872-19.456l-5.12-35.328h110.592l40.448 78.848c4.608 8.704 3.072 19.456-3.584 27.136L789.504 826.368c-3.584 4.096-8.704 6.656-13.824 7.168l-74.752 11.264c-10.24 1.024-19.456-3.072-24.064-11.264-14.848-23.552-42.496-35.328-69.12-29.696h-1.024c-0.512 0-1.536 0.512-2.048 0.512-27.136 2.56-49.664 22.016-56.832 48.64-2.56 9.216-9.728 16.384-19.968 17.92l-74.752 11.264c-6.144 0.512-11.264-0.512-15.36-3.072L337.92 821.248c-8.704-4.608-13.312-14.848-11.776-24.576l19.456-112.64zM997.376 599.552c-4.608 6.144-12.288 10.24-20.48 10.24H201.216l-34.304 200.192c-2.56 11.776-12.8 20.48-25.088 20.48H47.104c-14.336 0-25.6-11.264-25.6-25.6s11.264-25.6 25.6-25.6h73.728l136.192-674.304h575.488c14.336 0 25.6 11.264 25.6 25.6s-11.264 25.6-25.6 25.6H301.056l-20.48 92.672h607.744c11.776 0 22.016 8.192 25.088 18.944l88.576 310.272c1.536 7.168 0 14.848-4.608 21.504z m-54.272-40.96l-74.24-259.072h-599.04L211.456 558.592h731.648zM754.176 56.832c-47.104 0-85.504-38.4-85.504-85.504s38.4-85.504 85.504-85.504S839.68-75.776 839.68-28.672s-37.888 85.504-85.504 85.504z m42.496-85.504c0-23.552-18.944-42.496-42.496-42.496s-42.496 18.944-42.496 42.496 18.944 42.496 42.496 42.496 42.496-19.456 42.496-42.496zM379.904 406.016l322.048-49.152h3.072c11.776 0 22.016 8.704 24.064 20.48l24.064 159.232h-48.64l-20.48-128.512-273.92 41.984 13.312 86.528h-48.64l-15.872-102.912c-1.024-12.8 7.68-25.088 20.992-27.648z"  horiz-adv-x="1024" />

    
    <glyph glyph-name="bj_import" unicode="&#59037;" d="M512 892.408818C230.348697 892.408818 2.052104 663.599198 2.052104 381.947896s228.809619-509.947896 509.947896-509.947896 509.947896 228.809619 509.947896 509.947896-228.296593 510.460922-509.947896 510.460922zM263.695391 560.480962C406.829659 687.198397 502.765531 604.601202 570.997996 479.422846l61.0501 36.937875c4.617234 2.56513 9.234469 2.56513 13.338678-0.513026s5.643287-8.208417 4.617234-13.338677l-29.755511-191.358717c-2.052104-7.182365-8.721443-10.773547-14.877756-9.234469L434.02004 371.687375c-3.078156 0.513026-5.643287 3.078156-7.695391 5.643286-0.513026 1.026052-1.026052 3.078156-1.026052 4.617235-0.513026 5.130261 2.052104 10.260521 6.156313 12.825651l60.024048 36.42485c-66.693387 123.639279-130.821643 166.220441-227.270541 115.943888v13.338677zM769.539078 220.857715c0-44.633267-35.398798-80.54509-79.519038-80.54509h-357.066132c-44.12024 0-79.519038 35.911824-79.519038 80.54509V422.476954h39.503006v-204.184369c0-22.06012 17.442886-40.529058 39.503006-40.529058h357.066132c22.06012 0 39.503006 18.468938 39.503006 40.529058V546.116232c0 22.06012-17.442886 40.529058-39.503006 40.529059h-79.519038V624.096192h79.519038c44.12024 0 79.519038-35.911824 79.519038-80.54509v-322.693387h0.513026z"  horiz-adv-x="1026" />

    
    <glyph glyph-name="bj_help" unicode="&#59092;" d="M473.088 199.168h82.944v-78.848h-82.944zM476.672 279.552c2.048 39.936 6.656 58.368 10.24 67.584s14.848 25.6 45.568 49.664l27.136 21.504c9.728 7.68 18.432 15.872 24.576 25.088 11.264 15.872 17.408 33.792 17.408 53.248 0 22.016-6.656 41.984-19.456 60.416-13.824 19.456-38.4 29.696-72.704 29.696s-58.88-11.776-73.728-35.84c-10.752-16.896-17.408-34.816-19.456-53.248h-78.848c5.12 58.368 27.136 99.328 66.56 124.416 27.136 17.408 60.928 26.112 100.864 26.112 52.736 0 97.28-12.8 132.096-37.888 33.792-24.064 49.664-59.392 49.664-108.032 0-29.184-7.168-53.76-21.504-73.216-8.704-12.288-26.112-28.672-51.712-48.64l-26.624-20.48c-16.896-12.8-28.16-28.672-33.792-46.592-2.56-8.192-4.096-19.456-5.12-33.792h-71.168zM512 877.568C239.616 877.568 18.432 656.896 18.432 384c0-272.384 220.672-493.568 493.568-493.568s493.568 220.672 493.568 493.568S784.384 877.568 512 877.568z m0-935.936c-244.224 0-442.368 198.144-442.368 442.368S268.288 826.368 512 826.368s442.368-198.144 442.368-442.368c0-243.712-198.144-442.368-442.368-442.368z"  horiz-adv-x="1024" />

    
    <glyph glyph-name="bj_left" unicode="&#59038;" d="M674.304 84.992c11.264 11.264 11.264 28.672 0 39.936l-261.632 261.632 261.632 267.264c11.264 11.264 11.264 28.672 0 39.936s-28.672 11.264-39.936 0l-284.672-284.672c-11.264-11.264-11.264-28.672 0-39.936l284.672-284.672c11.264-10.752 28.16-10.752 39.936 0.512z"  horiz-adv-x="1024" />

    
    <glyph glyph-name="bj_increase" unicode="&#59093;" d="M506.88 882.688C234.496 882.688 13.312 662.016 13.312 389.12c0-272.384 220.672-493.568 493.568-493.568s493.568 220.672 493.568 493.568S779.264 882.688 506.88 882.688z m0-935.936c-244.224 0-442.368 198.144-442.368 442.368S263.168 831.488 506.88 831.488s442.368-198.144 442.368-442.368c0-243.712-198.144-442.368-442.368-442.368zM197.632 371.2c-4.608 4.608-7.68 11.264-7.168 17.92 0 14.336 11.264 25.6 25.6 25.6h582.144c14.336 0 25.6-11.264 25.6-25.6s-11.264-25.6-25.6-25.6H216.064c-7.168 0-13.824 3.072-18.432 7.68zM488.96 698.88c4.608 4.608 11.264 7.68 17.92 7.168 14.336 0 25.6-11.264 25.6-25.6v-582.144c0-14.336-11.264-25.6-25.6-25.6s-25.6 11.264-25.6 25.6V680.448c0 7.168 3.072 13.824 7.68 18.432z"  horiz-adv-x="1024" />

    
    <glyph glyph-name="bj_left1" unicode="&#59039;" d="M630.272 147.968L394.24 384l236.032 236.032v-472.064z"  horiz-adv-x="1024" />

    
    <glyph glyph-name="bj_down1" unicode="&#59041;" d="M748.032 502.272L512 266.24 275.968 502.272h472.064z"  horiz-adv-x="1024" />

    
    <glyph glyph-name="bj_like" unicode="&#59040;" d="M939.144 726.288c-99.433 99.432-255.61 99.432-349.316 0l-69.238-69.239-71.321 71.321c-98.392 98.392-254.048 98.392-347.754-1.562-91.103-91.103-91.103-244.677 0-341.507l123.9-123.9 244.157-244.156 51.018-51.018 51.018 51.018L815.764 261.4 938.103 383.22c92.665 92.665 92.665 245.198 1.04 343.069z m-52.58-292.572L764.226 311.898 520.069 67.742 275.913 311.898 153.574 433.716c-65.074 69.76-65.074 178.563 0 244.157 65.074 69.759 174.398 69.759 244.157 0l71.32-71.32h0.52l50.498-50.498 50.497 50.497h0.52l71.322 71.32c65.073 69.76 174.397 69.76 244.156 0 65.595-70.279 65.595-179.082 0-244.156z"  horiz-adv-x="1041" />

    
    <glyph glyph-name="bj_lisrtips" unicode="&#59094;" d="M614.4 245.76l-2.56 3.584-7.68 3.584h-3.584c-4.096 0-8.704-1.024-23.04-8.192l-23.04-15.36c-6.144-4.096-13.312-7.168-20.48-9.728-7.68-2.56-16.384-5.12-24.576-6.656-5.632-1.024-10.752-2.048-15.872-1.536-7.168 1.024-9.216 3.584-9.728 4.608-2.048 3.072-3.072 8.704-2.048 15.872 1.024 10.752 4.096 25.088 8.704 43.008 5.12 18.432 9.728 34.304 14.336 47.616 4.608 13.312 10.24 27.648 16.384 42.496 6.144 14.336 11.264 25.088 14.848 31.232 3.072 5.632 8.192 12.288 14.848 19.456 6.144 6.656 20.48 22.528 12.288 37.376-4.608 8.192-12.288 13.312-25.088 13.824-6.144 0-12.8-1.536-20.48-4.096-8.192-3.072-13.312-5.12-15.36-6.144-2.048-1.024-5.12-3.072-19.456-14.848-13.824-11.264-17.92-15.872-19.968-19.968-2.048-4.096-3.584-9.216-4.608-23.04-0.512-5.12-2.56-15.36-9.728-35.84l-20.48-65.024-16.384-45.056c-4.096-15.36-5.632-28.672-5.12-40.448 1.024-11.776 3.072-22.528 7.168-32.256 4.096-10.752 9.728-19.456 16.896-26.112 7.68-7.168 17.408-11.776 28.16-13.312 3.072-0.512 6.144-1.024 9.728-1.024 8.704 0 18.944 1.536 31.232 5.12 15.36 4.608 27.648 9.216 37.888 13.824 10.752 4.608 20.48 10.24 29.696 16.384 8.192 5.632 16.896 11.776 25.6 18.432 11.264 8.192 18.432 16.896 21.504 26.624 2.56 8.192 5.632 17.408 0 25.6zM483.328 522.24c5.12-4.608 11.776-6.656 19.456-7.168 9.216-1.024 22.016 4.608 37.888 16.384 16.384 11.776 24.576 21.504 25.6 28.672 1.024 7.168-1.536 17.92-7.168 32.768-5.632 14.848-11.264 24.576-15.872 28.672-5.12 4.096-10.752 6.144-17.92 6.656-13.312 0.512-25.088-5.632-35.84-17.92-10.752-12.8-17.408-22.528-20.48-30.208-3.072-7.68-4.608-12.8-4.608-15.872-0.512-5.632 1.024-12.8 4.608-21.504 4.608-9.728 9.216-16.384 14.336-20.48zM22.528 384c0-272.384 220.672-493.568 493.568-493.568 272.384 0 493.568 220.672 493.568 493.568S788.992 877.568 516.096 877.568 22.528 656.384 22.528 384z m935.936 0c0-244.224-198.144-442.368-442.368-442.368S73.728 140.288 73.728 384 271.872 826.368 516.096 826.368c243.712 0 442.368-198.144 442.368-442.368z"  horiz-adv-x="1024" />

    
    <glyph glyph-name="bj_link" unicode="&#59095;" d="M951.478275 819.680058c-101.759922 101.759922-264.573798 101.759922-356.156728 0l-223.86983-223.869829c-101.758922-101.757922-101.758922-264.572798 0-356.155729 20.351984-10.175992 30.527977-20.350984 40.703969-30.526977l81.406938 71.229946c-20.351984 10.176992-30.526977 20.352984-50.879961 30.528977-61.054953 61.054953-61.054953 152.637884 0 213.693837l213.694837 213.693837c61.054953 61.054953 162.813876 61.054953 223.869829 10.174992s61.054953-152.637884 0-213.693837l-71.231945-81.406938c10.175992-30.526977 20.351984-81.406938 20.351984-122.109907l122.109907 122.109907c101.759922 101.759922 101.759922 264.573798 0 366.332721zM656.3775 514.405291l-40.703969 40.702969-81.406938-81.406938c20.351984-10.175992 30.527977-20.351984 40.703969-30.527977 61.054953-61.054953 61.054953-152.637884 0-213.693837L361.276725 15.78467c-50.879961-61.054953-152.638884-61.054953-213.693837 0s-61.055953 152.638884 0 213.693838l71.229945 71.231945c-10.174992 40.702969-20.349984 81.406938-20.349984 122.109907L76.349942 300.710453c-101.758922-101.759922-101.758922-264.573798 0-356.156728s264.573798-101.758922 356.156729 0l213.693837 213.693837c101.758922 101.759922 101.758922 264.573798 10.175992 356.156729z"  horiz-adv-x="1033" />

    
    <glyph glyph-name="bj_listedit" unicode="&#59099;" d="M26.112 39.424l108.032 245.76 141.312-162.304-249.344-83.456zM308.736 148.992L165.888 313.344l439.296 392.192 142.848-163.84-439.296-392.704zM778.752 571.904l-142.848 163.84L716.8 807.936c26.624 24.064 67.584 21.504 91.648-5.632L865.28 736.768c23.552-27.136 20.992-68.608-5.632-92.672l-80.896-72.192zM980.48-56.32h-936.96c-14.336 0-25.6 11.264-25.6 25.6s11.264 25.6 25.6 25.6h936.96c14.336 0 25.6-11.264 25.6-25.6s-11.776-25.6-25.6-25.6z"  horiz-adv-x="1024" />

    
    <glyph glyph-name="bj_listwarning" unicode="&#59097;" d="M512 223.744c22.528 0 40.96 18.432 40.96 40.96V567.296c0 22.528-18.432 40.96-40.96 40.96s-40.96-18.432-40.96-40.96v-303.104c0-22.016 18.432-40.448 40.96-40.448z m0-52.736c-15.36 0-30.208-6.144-40.96-16.896-10.752-10.752-16.896-25.6-16.896-40.96s6.144-30.208 16.896-40.96c10.752-10.752 25.6-16.896 40.96-16.896s30.208 6.144 40.96 16.896c10.752 10.752 16.896 25.6 16.896 40.96s-6.144 30.208-16.896 40.96c-10.752 10.24-25.6 16.896-40.96 16.896z m386.048-242.176H125.952c-29.696 0-55.808 16.896-70.656 44.544-14.848 28.16-14.848 61.44 0 89.088l386.048 731.648c14.848 28.16 40.96 44.544 70.656 44.544 29.696 0 55.808-16.896 70.656-44.544l386.048-731.648c14.848-28.16 14.848-61.44 0-89.088-14.336-27.648-40.96-44.544-70.656-44.544zM512 770.048c-3.072 0-11.264-1.024-16.384-10.24L109.568 28.672c-5.12-9.216-1.536-17.408 0-20.48 1.536-3.072 6.656-10.24 16.384-10.24h772.608c9.728 0 14.336 7.168 16.384 10.24 1.536 3.072 5.12 11.264 0 20.48L528.384 759.808c-5.12 9.728-13.312 10.24-16.384 10.24z"  horiz-adv-x="1024" />

    
    <glyph glyph-name="bj_loading" unicode="&#59098;" d="M1020.089856 452.096c-3.072 19.968-7.168 39.424-12.288 58.88-6.144 24.576-14.336 49.152-24.576 72.192-20.48 48.128-48.128 93.184-81.92 133.12-36.352 43.008-80.384 79.872-129.024 108.544-48.128 28.16-100.352 48.128-155.136 59.392-28.16 5.632-56.832 9.216-85.504 9.216-22.528 0-45.056-0.512-67.584-2.56-57.856-5.632-115.2-22.016-167.936-46.592-45.056-21.504-87.552-49.152-124.928-82.432-37.376-33.28-69.632-71.68-96.256-114.688-28.672-47.104-50.688-98.816-62.464-153.088-9.728-43.008-14.336-88.064-11.776-132.096 2.048-43.008 8.704-86.016 21.504-126.976 8.192-26.112 17.92-51.712 30.208-76.288 12.288-24.576 26.112-47.616 41.984-69.632 31.232-44.032 69.632-82.944 113.152-114.688 44.544-32.768 94.72-58.368 147.456-75.264 55.296-17.408 113.664-25.6 171.52-23.552 56.32 2.048 112.64 12.8 165.376 32.768 50.688 19.456 98.304 47.616 139.776 82.432 20.992 17.92 39.424 37.888 57.344 58.88 17.92 21.504 33.792 44.032 47.104 68.096 11.264 20.992 20.992 43.008 29.184 65.024 4.096 10.752 8.192 22.016 11.264 33.28 3.584 12.288 6.144 24.576 8.192 36.864 3.584 19.456 4.608 39.424 3.072 58.88-1.536-8.704-3.072-16.896-5.12-25.6-2.56-9.728-5.632-19.456-9.216-28.672-7.168-19.968-16.384-38.912-25.088-57.856-11.264-24.576-24.064-47.616-38.4-70.144-7.168-11.776-14.848-23.04-23.04-33.792-8.192-10.752-17.408-21.504-26.624-31.744-18.432-20.48-38.912-38.912-61.44-55.296-23.04-16.896-47.104-31.744-73.216-44.032-51.2-25.088-107.52-39.936-164.352-45.056-58.368-5.12-117.76 0.512-173.568 17.408-53.248 15.872-103.936 40.96-147.968 74.752-43.008 32.768-80.384 72.704-109.568 117.76-30.72 46.08-51.712 98.304-63.488 152.576-3.072 14.336-5.12 28.672-6.656 43.008-1.536 12.288-2.56 24.576-3.072 37.376-0.512 25.6 1.024 52.224 4.608 77.824 8.192 55.808 26.624 110.08 54.784 159.232 25.6 43.008 57.856 82.944 96.256 116.224 38.4 33.792 81.92 60.928 129.024 79.872 27.136 11.264 55.808 19.456 84.992 24.576 14.848 2.56 29.696 5.12 44.544 6.144 7.168 0.512 14.336 0.512 21.504 1.536h8.704c49.152 1.024 98.816-5.632 145.92-20.48 50.688-15.872 98.304-41.472 139.776-75.264 43.52-34.816 79.872-78.336 107.008-126.976 23.04-41.472 39.936-86.016 49.664-132.608l6.144-32.256c1.536-9.728 7.168-18.944 15.36-24.576 17.92-11.776 42.496-4.096 51.2 15.36 3.584 7.168 4.608 14.336 3.584 20.992z"  horiz-adv-x="1025" />

    
    <glyph glyph-name="bj_man" unicode="&#59119;" d="M512.512 282.112c118.784 0 226.304 146.432 226.304 313.344 0 123.904-100.352 223.744-224.256 223.744-123.904 0-223.744-100.352-223.744-223.744-2.048-166.912 102.4-313.344 221.696-313.344z m0 487.936c77.312 0 144.384-52.736 163.84-127.488-35.84-8.192-73.216 7.168-92.672 38.912-0.512 4.096-2.56 7.68-6.144 10.24-8.192 4.096-17.408 0.512-21.504-7.68-26.112-53.76-107.52-71.68-207.872-53.76 14.336 79.872 83.456 138.24 164.352 139.776z m-176.64-178.688c26.624-5.632 53.248-8.192 80.384-8.704 57.856-3.584 114.176 17.92 154.624 58.88 23.552-27.136 57.856-43.008 94.208-43.52 7.68 0 15.36 1.024 23.04 2.56 0.512-3.072 0.512-6.656 0-9.728 0-139.264-82.944-261.12-176.64-261.12s-175.616 122.88-175.616 261.632zM929.28 13.312l-39.936 130.048c-22.016 79.36-84.48 140.288-163.84 161.28l-11.264 3.584h-4.096c-14.848 3.584-30.72-1.024-41.472-12.288-37.376-48.64-94.208-78.848-155.648-81.408-60.928 3.584-117.76 33.28-155.648 80.896-10.24 11.264-25.6 16.384-40.448 13.312h-8.192l-10.24-3.072c-79.36-20.992-142.336-81.92-164.864-161.28l-39.936-131.072c-4.096-15.872-0.512-32.768 9.216-45.568 10.752-13.312 27.648-20.48 44.544-18.944h732.16c16.384 0 31.744 7.68 41.984 20.992 8.704 12.8 11.776 28.672 7.68 43.52z m-49.664-12.8c-3.072-4.096-7.68-6.656-12.8-6.656H161.28c-5.632 0-10.752 3.072-13.312 8.192-1.536 3.584-1.536 7.68 0 11.264l32.768 117.248c20.992 62.464 72.704 109.568 137.216 123.904h16.896c3.072 0 5.632-1.536 7.68-3.584 44.544-47.616 106.496-75.264 172.032-76.288 67.072 2.048 130.56 32.256 174.08 83.456 2.048 2.048 4.608 3.584 7.68 3.584h7.168l10.24-2.56c65.024-13.824 116.736-62.464 133.632-126.976l35.84-118.784c1.024-3.584 0-7.68-2.56-10.752v-2.048z"  horiz-adv-x="1024" />

    
    <glyph glyph-name="bj_newlist" unicode="&#59103;" d="M512 877.568C239.616 877.568 18.432 656.896 18.432 384c0-272.384 220.672-493.568 493.568-493.568s493.568 220.672 493.568 493.568S784.384 877.568 512 877.568z m0-935.424c-243.712 0-442.368 198.144-442.368 442.368 0 243.712 198.144 442.368 442.368 442.368s442.368-198.144 442.368-442.368-198.656-442.368-442.368-442.368z m290.304 467.456H537.6V674.304c0 14.336-11.264 25.6-25.6 25.6s-25.6-11.264-25.6-25.6v-264.704H221.696c-14.336 0-25.6-11.264-25.6-25.6s11.264-25.6 25.6-25.6H486.4v-264.704c0-14.336 11.264-25.6 25.6-25.6s25.6 11.264 25.6 25.6V358.4h264.704c14.336 0 25.6 11.264 25.6 25.6s-11.776 25.6-25.6 25.6z"  horiz-adv-x="1024" />

    
    <glyph glyph-name="bj_more" unicode="&#59044;" d="M512 877.568C239.616 877.568 18.432 656.896 18.432 384c0-272.384 220.672-493.568 493.568-493.568s493.568 220.672 493.568 493.568S784.384 877.568 512 877.568z m0-935.936c-244.224 0-442.368 198.144-442.368 442.368S268.288 826.368 512 826.368s442.368-198.144 442.368-442.368c0-243.712-198.144-442.368-442.368-442.368zM512 384m-51.2 0a51.2 51.2 0 1 1 102.4 0 51.2 51.2 0 1 1-102.4 0ZM758.784 384m-51.2 0a51.2 51.2 0 1 1 102.4 0 51.2 51.2 0 1 1-102.4 0ZM265.216 384m-51.2 0a51.2 51.2 0 1 1 102.4 0 51.2 51.2 0 1 1-102.4 0Z"  horiz-adv-x="1024" />

    
    <glyph glyph-name="bj_nosee" unicode="&#59124;" d="M920.576 411.648c-9.728 0-18.944 5.632-23.04 14.848C834.048 563.712 683.008 652.288 512 652.288S189.952 563.712 126.464 426.496c-6.144-12.8-20.992-18.432-33.792-12.288-12.8 6.144-18.432 20.992-12.288 33.792C151.552 603.136 321.536 703.488 512 703.488c190.464 0 360.448-100.352 432.128-255.488 6.144-12.8 0.512-28.16-12.288-33.792-4.096-2.048-7.68-2.56-11.264-2.56zM512 64.512c-190.464 0-360.448 100.352-432.128 255.488-6.144 12.8-0.512 28.16 12.288 33.792 12.8 6.144 28.16 0.512 33.792-12.288 63.488-137.216 214.528-225.792 385.536-225.792s322.048 88.576 385.536 225.792c6.144 12.8 20.992 18.432 33.792 12.288 12.8-6.144 18.432-20.992 12.288-33.792-70.656-155.136-240.64-255.488-431.104-255.488zM512 198.144c-102.4 0-185.856 83.456-185.856 185.856S409.6 569.856 512 569.856s185.856-83.456 185.856-185.856S614.4 198.144 512 198.144z m0 320.512c-74.24 0-134.656-60.416-134.656-134.656s60.416-134.656 134.656-134.656 134.656 60.416 134.656 134.656-60.416 134.656-134.656 134.656z"  horiz-adv-x="1024" />

    
    <glyph glyph-name="bj_message" unicode="&#59117;" d="M894.976 228.864c-36.864 38.4-44.032 23.552-36.864 202.752v1.024c1.024 152.064-60.928 240.64-112.64 287.744-39.424 35.84-79.36 53.76-100.864 61.952-10.752 40.448-47.616 96.768-133.12 96.768s-122.368-56.32-133.12-96.768c-21.504-7.68-60.928-26.112-100.864-61.952C225.792 673.28 163.84 585.216 164.864 432.64v-1.024c7.68-179.2 0-164.864-36.864-202.752-33.28-35.84-45.568-93.184-28.672-137.216 9.728-25.088 37.376-68.096 114.176-74.24h116.224c23.552-73.728 95.744-128 181.248-128s157.696 54.272 181.248 128h116.224c77.312 6.656 104.96 49.664 114.176 74.24 17.92 44.032 5.632 101.888-27.648 137.216zM512-61.952c-56.832 0-105.984 32.768-126.976 79.36h253.952c-20.992-46.592-70.144-79.36-126.976-79.36z m364.032 172.544c-11.776-30.208-44.032-39.424-69.632-41.472H218.112c-25.6 2.56-58.368 11.776-69.632 41.472-11.264 29.696 1.024 65.024 17.92 83.456 52.224 54.272 58.368 57.856 50.688 239.616-1.536 251.392 182.784 302.08 190.464 304.128l16.896 4.608 2.048 17.408c1.024 7.168 10.752 68.096 85.504 68.096s84.48-60.928 85.504-68.096l2.048-17.408 16.896-4.608c7.68-2.048 192-52.224 190.464-304.128-7.68-181.76-1.536-185.344 50.688-239.616 17.408-18.432 29.696-54.272 18.432-83.456z"  horiz-adv-x="1024" />

    
    <glyph glyph-name="bj_notice" unicode="&#59104;" d="M524.8 773.632c-58.88-48.128-182.272-115.2-270.848-179.712-1.024-0.512-2.048-4.096-3.072-5.12-10.752-6.144-15.36-22.528-72.192-22.528H67.584c-28.672 0-46.08-13.824-46.08-44.544v-273.92c0-30.72 16.384-46.08 46.08-46.08H179.2c56.832 0 61.44-16.896 71.68-22.528 1.024-0.512 2.048-4.096 3.072-4.608 86.016-64.512 209.92-137.216 270.848-183.296 18.432-13.824 79.36-38.4 79.36 47.616V730.624c0 84.992-61.44 57.856-79.36 43.008z m407.552-436.224H737.28c-25.6 0-46.08 20.48-46.08 46.08s20.48 46.08 46.08 46.08h195.072c25.6 0 46.08-20.48 46.08-46.08s-20.48-46.08-46.08-46.08z m-27.648 309.76l-179.2-77.312c-23.552-10.24-50.688 0.512-60.416 24.064s0.512 50.688 24.064 60.416l179.2 77.312c23.552 10.24 50.688-0.512 60.416-24.064 10.24-23.552-0.512-50.688-24.064-60.416z m0-527.872l-179.2 77.312c-23.552 10.24-50.688-0.512-60.416-24.064-10.24-23.552 0.512-50.688 24.064-60.416l179.2-77.312c23.552-10.24 50.688 0.512 60.416 24.064s-0.512 50.688-24.064 60.416z"  horiz-adv-x="1024" />

    
    <glyph glyph-name="bj_open" unicode="&#59050;" d="M816.128 701.44c-11.264 11.264-28.672 11.264-39.936 0l-261.632-261.632L247.296 701.44c-11.264 11.264-28.672 11.264-39.936 0s-11.264-28.672 0-39.936l284.672-284.672c11.264-11.264 28.672-11.264 39.936 0l284.672 284.672c10.752 11.264 10.752 28.16-0.512 39.936zM816.128 391.168c-11.264 11.264-28.672 11.264-39.936 0l-261.632-261.632L247.296 391.168c-11.264 11.264-28.672 11.264-39.936 0s-11.264-28.672 0-39.936l284.672-284.672c11.264-11.264 28.672-11.264 39.936 0l284.672 284.672c10.752 11.264 10.752 28.16-0.512 39.936z"  horiz-adv-x="1024" />

    
    <glyph glyph-name="bj_opemenu" unicode="&#59106;" d="M102.4-128c-56.32 0-102.4 46.08-102.4 102.4v819.2c0 56.32 46.08 102.4 102.4 102.4s102.4-46.08 102.4-102.4v-819.2c0-56.32-46.08-102.4-102.4-102.4z m409.6 0c-56.32 0-102.4 46.08-102.4 102.4v819.2c0 56.32 46.08 102.4 102.4 102.4s102.4-46.08 102.4-102.4v-819.2c0-56.32-46.08-102.4-102.4-102.4z m409.6 0c-56.32 0-102.4 46.08-102.4 102.4v819.2c0 56.32 46.08 102.4 102.4 102.4s102.4-46.08 102.4-102.4v-819.2c0-56.32-46.08-102.4-102.4-102.4z"  horiz-adv-x="1024" />

    
    <glyph glyph-name="bj_overcast" unicode="&#59126;" d="M850.944 363.52s0 0.512 0 0c-0.512 1.024-0.512 1.536-1.024 2.048-2.048 5.12-3.584 9.728-6.144 14.336-0.512 1.024-0.512 1.536-1.024 2.56-2.048 4.608-4.608 9.728-7.168 14.336-0.512 0.512-0.512 1.024-1.024 2.048-3.072 5.12-6.144 9.728-9.216 14.848v0.512c-24.064 34.304-57.344 61.44-97.792 77.312-2.56 1.024-5.12 2.048-7.68 2.56-2.56 1.024-4.608 2.048-7.168 2.56-29.184 102.4-121.856 172.544-229.376 172.544-79.872 0-155.136-40.96-199.168-107.008-29.184-3.072-57.856-11.264-84.48-25.088l-3.072-1.536c-2.048-1.024-4.608-2.048-6.656-3.584l-1.536-1.536C114.688 488.448 65.024 409.088 65.024 318.464c0-134.656 109.568-244.224 244.224-244.224h339.968C768 74.24 865.28 171.008 865.28 289.792c-1.536 26.112-6.144 50.688-14.336 73.728z m-202.752-244.224h-339.968c-110.08 0-199.68 89.6-199.68 199.68 0 105.984 82.944 193.024 188.928 199.168 0.512 0 1.024 0 2.048 0.512 20.992 1.024 42.496-1.536 63.488-7.168 51.2-14.336 94.208-48.128 119.808-94.72 4.096-7.168 11.776-11.264 19.456-11.264 3.584 0 7.168 1.024 10.752 3.072 10.752 6.144 14.848 19.456 8.704 30.208-31.744 56.832-83.968 98.304-146.944 115.712-11.776 3.584-23.552 5.632-35.328 7.168 36.352 39.936 87.552 63.488 142.848 63.488 79.872 0 148.992-47.616 179.2-118.784-14.848 1.024-29.696 0.512-44.544-1.536-12.288-1.536-20.48-13.312-18.944-25.088 2.048-12.288 13.312-20.48 25.088-18.944 22.016 3.072 44.032 2.048 65.024-3.072 9.216-2.048 17.92-5.12 26.624-8.704 1.024-0.512 1.536-0.512 2.56-1.024 7.68-3.584 14.848-7.168 21.504-11.776l4.608-3.072c6.144-4.096 12.288-8.704 17.408-13.312l4.608-4.608c5.12-5.12 10.24-10.24 14.848-15.872 1.536-1.536 2.56-3.072 3.584-5.12 4.608-6.144 8.704-12.288 12.288-18.944 1.024-1.536 1.536-3.072 2.56-4.608 12.8-24.064 19.968-50.688 19.968-79.36 0.512-95.232-76.288-172.032-170.496-172.032z m299.008 291.84c-0.512 1.024-0.512 1.536-1.024 2.048-1.536 4.608-3.584 9.216-5.632 13.312-0.512 1.024-0.512 1.536-1.024 2.56-2.048 4.608-4.608 8.704-6.656 13.312-0.512 0.512-0.512 1.024-1.024 1.536-2.56 4.608-5.632 9.216-8.704 13.824-22.016 31.744-53.248 56.832-90.624 71.68-2.56 1.024-4.608 1.536-7.168 2.56-2.048 1.024-4.608 1.536-6.656 2.56-27.136 94.72-112.64 159.744-212.48 159.744-18.944 0-37.376-2.56-55.808-7.168 28.672-7.68 55.296-19.456 79.36-35.84 63.488-8.192 117.248-49.664 141.824-108.032-13.312 1.024-27.136 0.512-40.96-1.536-2.56-0.512-4.608-1.024-6.656-2.56 3.072-7.168 6.144-14.336 8.704-22.016 1.024-0.512 2.56-1.024 3.584-1.536 10.24-4.096 19.968-8.704 29.184-13.824 10.752-0.512 20.992-2.048 31.232-4.608 8.704-2.048 16.384-4.608 24.576-8.192 0.512-0.512 1.536-0.512 2.56-1.024 7.168-3.072 13.824-6.656 19.968-10.752 1.536-1.024 3.072-2.048 4.096-3.072 5.632-3.584 11.264-8.192 16.384-12.288 1.536-1.536 3.072-2.56 4.608-4.096 4.608-4.608 9.728-9.728 13.824-14.848 1.024-1.536 2.048-3.072 3.584-4.608 4.096-5.632 8.192-11.264 11.264-17.408 1.024-1.536 1.536-3.072 2.048-4.096 11.776-22.016 18.432-47.104 18.432-73.216 0-35.84-11.776-69.12-32.256-95.744-5.12-28.16-14.848-54.784-29.184-78.848 60.928 34.304 102.4 99.328 102.4 174.08 0.512 24.064-4.096 46.592-11.776 68.096z"  horiz-adv-x="1024" />

    
    <glyph glyph-name="bj_password" unicode="&#59127;" d="M894.976 484.864h-83.456v148.48c0 56.832-31.744 114.688-87.04 158.72-57.344 45.568-132.608 71.168-212.48 71.168-176.64 0-299.52-121.344-299.52-229.888v-148.48H77.312c-14.336 0-25.6-11.264-25.6-25.6s11.264-25.6 25.6-25.6H894.976c14.336 0 26.112-11.776 26.112-26.112v-425.472c0-14.336-11.776-26.112-26.112-26.112H129.024c-14.336 0-26.112 11.776-26.112 26.112V290.816c0 14.336-11.264 25.6-25.6 25.6s-25.6-11.264-25.6-25.6v-308.736c0-42.496 34.816-77.312 77.312-77.312h765.952c42.496 0 77.312 34.816 77.312 77.312V407.552c0 42.496-34.304 77.312-77.312 77.312z m-631.296 0v148.48c0 102.4 131.072 178.688 248.32 178.688 142.336 0 248.32-94.208 248.32-178.688v-148.48h-496.64zM662.016 194.56c0 82.944-67.072 150.016-150.016 150.016s-150.016-67.072-150.016-150.016 67.072-150.016 150.016-150.016 150.016 67.584 150.016 150.016z m-248.832 0c0 54.272 44.544 98.816 98.816 98.816s98.816-44.544 98.816-98.816-44.544-98.816-98.816-98.816-98.816 44.544-98.816 98.816z"  horiz-adv-x="1024" />

    
    <glyph glyph-name="bj_pendinglist" unicode="&#59074;" d="M1005.568 837.12c0 22.528-17.92 40.448-40.448 40.448l-409.6-0.512L43.008 364.544c-32.256-32.256-32.256-84.48 0-116.736l332.8-332.8c16.384-16.384 37.376-24.064 58.368-24.064 20.992 0 42.496 8.192 58.368 24.064L1005.056 427.52l-0.512 0.512 1.024 409.088z m-52.224-388.608l-497.152-497.152c-6.144-6.144-13.824-9.216-22.016-9.216-8.192 0-16.384 3.072-22.016 9.216l-332.8 332.8c-6.144 6.144-9.216 13.824-9.216 22.016s3.072 16.384 9.216 22.016l497.664 497.664 377.344 0.512-1.024-377.856z m-178.176 86.528c61.952 0 112.128 50.176 112.128 112.128s-50.176 112.128-112.128 112.128S663.04 709.12 663.04 647.168s50.176-112.128 112.128-112.128z m0 173.056c33.28 0 60.928-27.136 60.928-60.928s-27.136-60.928-60.928-60.928c-33.792 0-60.928 27.136-60.928 60.928s27.136 60.928 60.928 60.928z m-248.832-202.752c0 14.336-11.264 25.6-25.6 25.6s-25.6-11.264-25.6-25.6v-103.424h-103.424c-14.336 0-25.6-11.264-25.6-25.6s11.264-25.6 25.6-25.6h103.424v-103.424c0-14.336 11.264-25.6 25.6-25.6s25.6 11.264 25.6 25.6V350.72H629.76c14.336 0 25.6 11.264 25.6 25.6s-11.264 25.6-25.6 25.6h-103.424V505.344z"  horiz-adv-x="1024" />

    
    <glyph glyph-name="bj_rain" unicode="&#59129;" d="M714.752 693.248C665.6 767.488 581.12 813.056 491.52 813.056c-120.32 0-224.256-78.848-257.024-193.024-100.864-31.232-169.984-123.904-169.984-230.4 0-133.12 108.544-241.664 241.664-241.664h380.416c151.04 0 273.408 122.368 273.408 273.408-0.512 140.8-107.008 257.536-245.248 271.872z m-28.16-495.616h-380.416c-105.472 0-191.488 86.016-191.488 191.488 0 75.776 44.032 141.824 110.592 173.056-2.56-39.424 3.072-79.36 18.432-117.248 4.096-9.728 13.312-15.872 23.04-15.872 3.072 0 6.144 0.512 9.216 2.048 12.8 5.12 18.944 19.968 13.824 32.768-14.848 37.376-19.456 76.8-13.312 115.2-2.56 0 2.56 0 0 0 1.536 6.656 1.536 9.216 3.072 15.36 23.04 99.328 110.08 169.472 211.968 169.472 62.464 0 119.296-26.112 160.256-71.168-13.312-1.536-26.624-4.096-39.424-7.68-70.144-19.968-128.512-66.048-164.352-129.536-6.656-12.288-2.56-27.136 9.728-33.792 4.096-2.048 8.192-3.072 12.288-3.072 8.704 0 17.408 4.608 22.016 12.8 29.184 52.224 76.8 89.6 134.144 105.984 23.552 6.656 47.616 9.216 71.68 8.192 0.512 0 1.024-0.512 1.536-0.512 118.272-6.656 211.456-103.936 211.456-222.72-1.024-123.904-101.376-224.768-224.256-224.768z m-429.056-73.216c-3.584 2.048-8.192 1.536-11.776-1.024l-87.552-62.976c-11.776-11.776-17.92-27.136-17.92-43.52 0-33.792 27.648-61.44 61.44-61.44s61.44 27.648 61.44 61.44V114.688c0 4.096-2.048 7.68-5.632 9.728z m-16.384-107.52c0-21.504-17.408-39.424-39.424-39.424-22.016 0-39.424 17.92-39.424 39.424 0 10.752 4.096 20.48 10.24 26.624l68.608 49.152c0.512 0 0.512-75.776 0-75.776z m203.264 107.52c-3.584 2.048-8.192 1.536-11.776-1.024l-87.552-62.976c-11.776-11.776-17.92-27.136-17.92-43.52 0-33.792 27.648-61.44 61.44-61.44s61.44 27.648 61.44 61.44V114.688c0.512 4.096-2.048 7.68-5.632 9.728z m-15.872-107.52c0-21.504-17.408-39.424-39.424-39.424s-39.424 17.92-39.424 39.424c0 10.752 4.096 20.48 10.24 26.624l68.608 49.152v-75.776z m203.264 107.52c-3.584 2.048-8.192 1.536-11.776-1.024L532.48 60.416c-11.776-11.776-17.92-27.136-17.92-43.52 0-33.792 27.648-61.44 61.44-61.44s61.44 27.648 61.44 61.44V114.688c1.024 4.096-1.536 7.68-5.632 9.728z m-16.384-107.52c0-21.504-17.408-39.424-39.424-39.424s-39.424 17.92-39.424 39.424c0 10.752 4.096 20.48 10.24 26.624l68.608 49.152v-75.776z m203.776 107.52c-3.584 2.048-8.192 1.536-11.776-1.024l-87.552-62.976c-11.776-11.776-17.92-27.136-17.92-43.52 0-33.792 27.648-61.44 61.44-61.44s61.44 27.648 61.44 61.44V114.688c0 4.096-1.536 7.68-5.632 9.728z m-16.384-107.52c0-21.504-17.408-39.424-39.424-39.424s-39.424 17.92-39.424 39.424c0 10.752 4.096 20.48 10.24 26.624l68.608 49.152v-75.776z"  horiz-adv-x="1024" />

    
    <glyph glyph-name="bj_promotion" unicode="&#59075;" d="M873.984 802.816v-844.8l-324.096 197.12c-13.824 8.192-29.696 12.8-45.568 12.8s-31.744-4.608-45.568-12.8l-324.096-197.12v844.8h739.328m14.848 51.2H120.32c-19.968 0-36.352-16.384-36.352-36.352v-885.248c0-21.504 17.408-36.352 36.352-36.352 6.144 0 12.8 1.536 18.944 5.632l346.624 210.944c5.632 3.584 12.288 5.12 18.944 5.12 6.656 0 13.312-1.536 18.944-5.12l346.624-210.944c6.144-3.584 12.8-5.632 18.944-5.632 18.944 0 36.352 15.36 36.352 36.352V817.664c-0.512 19.968-16.896 36.352-36.864 36.352zM763.904 274.944c-11.776-0.512-46.08-0.512-96.256-0.512-24.064 0-44.544 1.536-62.464 5.12V388.096H737.28v45.056h-132.096V510.976h121.344V707.072h-289.28v-196.096H558.08V293.888c-34.816 17.408-58.368 47.104-73.728 91.648 5.12 23.04 8.704 46.08 11.264 70.144l0.512 5.12-45.568 5.12-0.512-5.12c-10.24-103.424-36.352-171.52-80.896-214.016l-5.12-4.608 5.632-3.584c7.68-4.608 22.528-15.36 28.672-21.504l3.584-3.584 3.584 3.584c26.112 27.648 47.104 63.488 61.952 106.496 19.968-35.328 46.08-59.392 79.36-74.24 30.72-13.824 67.072-19.968 118.272-19.968h91.648l0.512 4.096c1.536 8.704 7.68 25.088 11.776 33.792l3.584 7.68h-8.704zM679.424 663.552v-109.056h-196.608V663.552h196.608zM403.456 719.36l-43.008 12.8-1.536-4.608C331.776 641.024 286.72 556.032 239.104 501.248l-2.56-3.072 2.56-3.072c6.144-8.192 15.872-27.136 19.456-35.328l3.072-7.68 5.632 6.656c16.384 18.944 31.744 40.448 46.592 64v-304.64h47.104V608.256c15.872 33.792 30.208 70.144 41.984 105.984l0.512 5.12z"  horiz-adv-x="1024" />

    
    <glyph glyph-name="bj_payment" unicode="&#59076;" d="M643.072 301.056c14.336 0 25.6 11.264 25.6 25.6s-11.264 25.6-25.6 25.6h-67.584l78.336 72.704c10.24 9.728 10.752 25.6 1.536 36.352-9.728 10.24-25.6 10.752-36.352 1.536L512 363.52 404.992 462.848c-10.24 9.728-26.624 9.216-36.352-1.536-9.728-10.24-9.216-26.624 1.536-36.352l78.336-72.704h-67.584c-14.336 0-25.6-11.264-25.6-25.6s11.264-25.6 25.6-25.6H486.4v-71.68h-105.472c-14.336 0-25.6-11.264-25.6-25.6s11.264-25.6 25.6-25.6H486.4v-94.72c0-14.336 11.264-25.6 25.6-25.6s25.6 11.264 25.6 25.6V178.176h105.472c14.336 0 25.6 11.264 25.6 25.6s-11.264 25.6-25.6 25.6H537.6v71.68h105.472zM580.096 672.768l106.496 78.848c16.896 12.8 24.064 33.792 17.408 54.272s-24.576 33.28-46.08 33.28h-305.664c-21.504 0-39.424-13.312-46.08-33.28-6.656-20.48 0-41.472 17.408-54.272L432.64 670.72C264.192 634.368 137.728 484.352 137.728 305.152v-298.496c0-43.008 34.816-77.824 77.824-77.824h592.896c43.008 0 77.824 34.816 77.824 77.824V305.152C885.76 488.448 753.664 641.024 580.096 672.768z m69.12 115.2L504.832 680.96l-144.384 107.008h288.768zM834.56 6.656c0-14.336-11.776-26.624-26.624-26.624H215.04c-14.336 0-26.624 11.776-26.624 26.624V305.152c0 178.176 144.896 323.072 323.072 323.072S834.56 483.328 834.56 305.152v-298.496z"  horiz-adv-x="1024" />

    
    <glyph glyph-name="bj_receipt" unicode="&#59077;" d="M408.576 693.76H227.84c-14.336 0-25.6 11.264-25.6 25.6s11.264 25.6 25.6 25.6h180.736c14.336 0 25.6-11.264 25.6-25.6s-11.776-25.6-25.6-25.6z m42.496-141.824H227.328c-14.336 0-25.6 11.264-25.6 25.6s11.264 25.6 25.6 25.6h223.744c14.336 0 25.6-11.264 25.6-25.6s-11.264-25.6-25.6-25.6z m73.216-141.312H227.84c-14.336 0-25.6 11.264-25.6 25.6s11.264 25.6 25.6 25.6h296.448c14.336 0 25.6-11.264 25.6-25.6s-11.776-25.6-25.6-25.6z m-115.712-141.312H227.84c-14.336 0-25.6 11.264-25.6 25.6s11.264 25.6 25.6 25.6h180.736c14.336 0 25.6-11.264 25.6-25.6s-11.776-25.6-25.6-25.6z m0-141.824H227.84c-14.336 0-25.6 11.264-25.6 25.6s11.264 25.6 25.6 25.6h180.736c14.336 0 25.6-11.264 25.6-25.6s-11.776-25.6-25.6-25.6z m-225.792-188.928c-22.016 0-40.448 17.92-40.448 40.448V783.36c0 22.016 17.92 40.448 40.448 40.448h446.464c10.752 0 20.992-4.608 28.672-12.288l10.752-10.752V636.416c0-14.336 11.264-25.6 25.6-25.6H855.04l15.36-15.872c7.68-7.68 11.264-17.408 11.264-28.16v-264.192c17.92-9.216 35.328-26.112 51.2-58.88V567.296c0 24.064-9.216 47.104-26.112 64l-212.48 216.576c-17.408 17.408-40.448 27.136-65.024 27.136H182.784c-50.688 0-91.648-40.96-91.648-91.648v-804.352c0-50.688 40.96-91.648 91.648-91.648h470.016c-59.904 18.432-72.192 34.816-84.992 51.2H182.784z m742.912-7.168l-81.408 81.408c22.528 28.672 36.352 65.024 36.352 104.448 0 93.184-75.776 169.472-169.472 169.472-93.184 0-169.472-75.776-169.472-169.472 0-93.184 75.776-169.472 169.472-169.472 35.328 0 68.608 10.752 95.744 29.696l82.432-82.432c5.12-5.12 11.776-7.68 17.92-7.68s13.312 2.56 17.92 7.68c10.752 10.24 10.752 26.112 0.512 36.352z m-332.8 185.856c0 65.024 53.248 118.272 118.272 118.272S829.44 182.272 829.44 117.248s-53.248-118.272-118.272-118.272-118.272 53.248-118.272 118.272z"  horiz-adv-x="1024" />

    
    <glyph glyph-name="bj_right" unicode="&#59051;" d="M349.696 693.76c-11.264-11.264-11.264-28.672 0-39.936l261.632-261.632-261.632-267.264c-11.264-11.264-11.264-28.672 0-39.936s28.672-11.264 39.936 0l284.672 284.672c11.264 11.264 11.264 28.672 0 39.936L389.632 694.272c-11.264 10.752-28.16 10.752-39.936-0.512z"  horiz-adv-x="1024" />

    
    <glyph glyph-name="bj_right1" unicode="&#59052;" d="M394.24 620.032l236.032-236.032-236.032-236.032V620.032z"  horiz-adv-x="1024" />

    
    <glyph glyph-name="bj_remove" unicode="&#59053;" d="M981.333-42.667H452.267L998.4 503.467c34.133 34.133 34.133 85.333 0 119.466L750.933 870.4C742.4 887.467 716.8 896 691.2 896c-17.067 0-42.667-8.533-59.733-25.6L25.6 264.533C-8.533 230.4-8.533 179.2 25.6 145.067L273.067-102.4c8.533-8.533 25.6-17.067 42.666-17.067h665.6c25.6 0 42.667 17.067 42.667 42.667s-17.067 34.133-42.667 34.133z m-896 247.467l307.2 307.2 238.934-238.933L332.8-42.667 85.333 204.8z"  horiz-adv-x="1024" />

    
    <glyph glyph-name="bj_sad" unicode="&#59113;" d="M326.380665 580.44713c-34.545821 0-62.90433-28.35851-62.904331-62.90433s28.35851-62.90433 62.904331-62.904331 62.90433 28.35851 62.90433 62.904331c0.515609 34.545821-27.8429 62.90433-62.90433 62.90433zM693.494461 580.44713c-34.545821 0-62.90433-28.35851-62.90433-62.90433s28.35851-62.388721 62.90433-62.388721c35.06143 0 62.90433 28.35851 62.904331 62.90433S728.555891 580.44713 693.494461 580.44713zM731.649547 190.646526c-2.062437 2.578046-4.124874 4.640483-6.187311 7.218529-14.437059 15.983887-30.936556 30.420947-48.467271 43.311179-48.98288 34.545821-106.215509 52.592145-166.026184 52.592145h-0.515609-0.515609c-59.810675 0-117.558912-18.561934-166.026183-52.592145-18.046324-12.890232-34.030211-27.327291-48.467271-43.311179-2.062437-2.578046-4.124874-4.640483-6.187311-7.218529-2.578046-4.640483-4.124874-9.796576-4.124875-15.468278 0-15.983887 12.890232-28.874119 28.874119-28.874119 8.765358 0 17.015106 4.124874 22.171199 10.312185 43.311178 48.98288 106.215509 79.403827 173.760322 79.403827h1.031218c67.544814 0 130.964753-29.905337 173.760323-79.403827 5.156093-6.187311 13.405841-10.312185 22.171198-10.312185 15.983887 0 28.874119 12.890232 28.874119 28.874119 0.515609 5.671702-1.031219 10.827795-4.124874 15.468278zM510.453172 885.687815c-274.304129 0-497.047331-222.227593-497.047331-497.047332 0-274.304129 222.227593-497.047331 497.047331-497.047331s497.047331 222.227593 497.047332 497.047331-222.743202 497.047331-497.047332 497.047332z m0-942.533736c-245.945619 0-445.486405 199.540785-445.486405 445.486404S265.023162 834.126888 510.453172 834.126888c245.43001 0 445.486405-199.540785 445.486405-445.486405 0-245.43001-199.540785-445.486405-445.486405-445.486404z"  horiz-adv-x="1031" />

    
    <glyph glyph-name="bj_salesclerk" unicode="&#59078;" d="M1005.568-4.608c-12.8 145.408-99.84 265.728-217.088 309.76 63.488 34.816 106.496 102.4 106.496 179.712 0 113.152-91.648 204.8-204.8 204.8-31.232 0-60.928-7.168-87.552-19.456-37.376 82.432-120.832 139.776-217.088 139.776-131.584 0-238.592-107.008-238.592-238.592 0-90.112 50.176-168.96 123.904-209.408-136.192-51.2-237.568-190.976-252.416-360.96-2.048-23.04 15.872-43.008 38.4-43.008h657.408c20.992 0 37.888 17.408 38.4 38.912-0.512-21.504-17.408-38.912-38.4-38.912h258.048c19.456 0 34.816 17.408 33.28 37.376z m-929.792 17.92c17.408 138.752 100.864 253.952 215.04 296.96 20.48 7.68 34.304 26.112 35.84 47.616s-9.728 41.984-28.672 52.224C239.104 442.368 202.752 503.808 202.752 570.88c0 100.864 82.432 183.296 183.296 183.296S569.344 671.744 569.344 570.88c0-67.072-36.352-128.512-95.232-160.768-18.944-10.24-30.208-30.72-28.672-52.224 1.536-21.504 15.36-40.448 35.84-47.616 114.176-43.008 197.632-158.208 215.04-296.96H75.776z m675.328 0c0.512-3.072 0.512-6.144 1.024-9.728-15.872 168.448-116.736 307.2-252.416 358.4 73.728 40.448 123.904 118.784 123.904 209.408 0 15.36-1.536 30.72-4.608 45.568 20.992 11.264 45.056 17.92 70.656 17.92 82.432 0 149.504-67.072 149.504-149.504 0-54.784-29.696-104.96-77.824-131.072-18.944-10.24-30.208-30.72-28.672-52.224 1.536-21.504 15.36-40.448 35.84-47.616 93.184-34.816 161.28-127.488 178.688-240.128h-196.096v-1.024z"  horiz-adv-x="1024" />

    
    <glyph glyph-name="bj_save" unicode="&#59055;" d="M938.667 896H85.333C42.667 896 0 853.333 0 810.667v-853.334C0-85.333 42.667-128 85.333-128h853.334c42.666 0 85.333 42.667 85.333 85.333V810.667C1024 853.333 981.333 896 938.667 896zM768 469.333H256V810.667h512v-341.334z m170.667-512H85.333V810.667h85.334V384h682.666V810.667h85.334v-853.334z m-332.8 768H691.2v-170.666h-85.333z"  horiz-adv-x="1024" />

    
    <glyph glyph-name="bj_search" unicode="&#59088;" d="M1000.96-69.632l-252.416 252.416c66.048 74.24 105.984 172.032 105.984 279.04 0 231.936-187.904 419.328-419.328 419.328S15.872 693.248 15.872 461.824c0-231.936 187.904-419.328 419.328-419.328 105.984 0 203.264 39.424 276.992 104.448l252.416-252.416c5.12-5.12 11.776-7.68 17.92-7.68s13.312 2.56 17.92 7.68c10.24 9.728 10.24 26.112 0.512 35.84zM67.072 461.824c0 203.264 165.376 368.128 368.128 368.128 203.264 0 368.128-165.376 368.128-368.128s-165.376-368.128-368.128-368.128c-203.264-0.512-368.128 164.864-368.128 368.128z"  horiz-adv-x="1024" />

    
    <glyph glyph-name="bj_setup" unicode="&#59089;" d="M665.088 808.448c49.664-17.92 96.768-45.568 137.728-79.872-18.432-55.296-12.8-116.224 16.384-166.912s79.36-86.528 136.192-97.792c4.608-26.624 7.168-52.736 7.168-79.872s-2.56-53.248-7.168-79.872c-56.832-11.264-106.496-47.104-136.192-97.792-29.184-50.688-35.328-111.616-16.384-166.912-40.448-34.304-87.552-61.44-137.728-79.872a204.3904 204.3904 0 0 1-153.088 69.12c-58.368 0-114.176-25.6-153.088-69.12-49.664 17.92-96.768 45.056-137.728 79.872 18.432 55.296 12.8 116.224-16.384 166.912S125.44 292.864 68.608 304.128c-4.608 26.624-7.168 53.248-7.168 79.872s2.56 53.248 7.168 79.872c56.832 11.264 106.496 47.104 136.192 97.792 29.184 50.688 35.328 111.616 16.384 166.912 40.448 34.304 87.552 61.44 137.728 79.872C397.824 764.416 453.632 739.328 512 739.328c58.88-0.512 114.688 25.6 153.088 69.12m-306.176 51.2c-5.632 0-11.776-1.024-17.408-3.072C286.208 836.608 233.472 805.888 188.416 767.488c-15.872-13.312-22.016-35.328-15.36-55.296 13.824-41.472 9.216-87.04-12.288-125.44C138.24 548.864 101.376 522.24 58.88 514.048c-20.48-4.096-36.864-20.48-40.448-41.472-5.632-30.72-8.192-59.392-8.192-88.576s2.56-57.856 8.192-88.576c3.584-20.992 19.456-37.376 40.448-41.472 43.008-8.704 79.872-35.328 101.888-73.216v-0.512c22.016-37.376 26.112-82.944 12.288-124.928-6.656-19.968-0.512-41.984 15.36-55.296 45.056-38.4 96.768-68.096 153.088-88.576 5.632-2.048 11.776-3.072 17.408-3.072 14.336 0 28.672 6.144 38.4 17.408 29.184 33.28 71.168 52.224 114.688 52.224s85.504-18.944 114.688-52.224c9.728-11.264 24.064-17.408 38.4-17.408 5.632 0 11.776 1.024 17.408 3.072 55.296 19.968 108.032 50.688 153.088 88.576 15.872 13.312 22.016 35.328 15.36 55.296-13.824 41.472-9.216 87.04 12.288 125.44 22.016 37.888 59.392 64.512 101.888 73.216 20.48 4.096 36.864 20.48 40.448 41.472 5.632 30.72 8.192 59.392 8.192 88.576s-2.56 57.856-8.192 88.576c-3.584 20.992-19.456 37.376-40.448 41.472-43.008 8.704-79.872 35.328-101.888 73.216v0.512c-22.016 37.376-26.112 82.944-12.288 124.928 6.656 19.968 0.512 41.984-15.872 55.808C790.016 805.888 737.28 836.608 682.496 856.576c-5.632 2.048-11.776 3.072-17.408 3.072-14.336 0-28.672-6.144-38.4-17.408C597.504 809.472 556.032 790.528 512 790.528c-43.52 0-85.504 18.944-114.688 52.224-9.728 10.752-24.064 16.896-38.4 16.896zM512 515.072c72.704 0 131.072-58.88 131.072-131.072S584.192 252.928 512 252.928s-131.072 58.88-131.072 131.072 58.88 131.072 131.072 131.072m0 51.2c-100.352 0-182.272-81.92-182.272-182.272S411.648 201.728 512 201.728s182.272 81.92 182.272 182.272-81.92 182.272-182.272 182.272z"  horiz-adv-x="1024" />

    
    <glyph glyph-name="bj_shrink" unicode="&#59069;" d="M938.667 810.667v-853.334H85.333V810.667h853.334m0 85.333H85.333C34.133 896 0 861.867 0 810.667v-853.334C0-93.867 34.133-128 85.333-128h853.334c51.2 0 85.333 34.133 85.333 85.333V810.667C1024 861.867 989.867 896 938.667 896zM512 358.4L486.4 384H213.333c-25.6 0-42.666-17.067-42.666-42.667s17.066-42.666 42.666-42.666h153.6l-153.6-153.6c-17.066-17.067-17.066-42.667 0-59.734 8.534-8.533 17.067-17.066 34.134-17.066s25.6 8.533 34.133 17.066l145.067 153.6v-153.6c0-25.6 17.066-42.666 42.666-42.666S512 59.733 512 85.333V358.4z m298.667 110.933h-153.6l153.6 153.6c17.066 17.067 17.066 42.667 0 59.734-8.534 8.533-8.534 8.533-25.6 17.066-8.534 0-25.6 0-34.134-8.533l-153.6-162.133v153.6c0 25.6-17.066 42.666-42.666 42.666S512 708.267 512 682.667V409.6l25.6-25.6h273.067c25.6 0 42.666 17.067 42.666 42.667s-17.066 42.666-42.666 42.666z"  horiz-adv-x="1024" />

    
    <glyph glyph-name="bj_see" unicode="&#59137;" d="M944.128 542.72c6.144 12.8 0.512 28.16-12.288 33.792-12.8 6.144-28.16 0.512-33.792-12.288-64-137.216-215.04-225.792-386.048-225.792-171.008 0-322.048 88.576-385.536 225.792-6.144 12.8-20.992 18.432-33.792 12.288-12.8-6.144-18.432-20.992-12.288-33.792C106.496 485.888 145.92 436.736 194.56 396.8l-40.448-65.536c-7.168-12.288-3.584-27.648 8.192-35.328 4.096-2.56 8.704-3.584 13.312-3.584 8.704 0 16.896 4.096 22.016 12.288L235.52 366.592c28.16-17.92 58.368-33.28 90.624-45.568l-22.528-70.656c-4.096-13.312 3.072-27.648 16.384-32.256 2.56-1.024 5.12-1.024 7.68-1.024 10.752 0 20.992 7.168 24.576 17.92l22.528 70.656c35.84-9.728 72.704-15.36 111.104-16.896v-73.728c0-14.336 11.264-25.6 25.6-25.6s25.6 11.264 25.6 25.6V288.256c38.4 2.048 75.264 7.68 111.104 16.896l22.528-70.656c3.584-10.752 13.312-17.92 24.576-17.92 2.56 0 5.12 0.512 7.68 1.024 13.312 4.096 20.992 18.944 16.384 32.256l-22.528 70.656c32.256 12.288 62.464 27.648 90.624 45.568l37.888-61.952c4.608-7.68 13.312-12.288 22.016-12.288 4.608 0 9.216 1.024 13.312 3.584 12.288 7.168 15.872 23.04 8.192 35.328L829.44 396.8c48.64 39.936 88.064 89.088 114.688 145.92z"  horiz-adv-x="1024" />

    
    <glyph glyph-name="bj_shoppingcart" unicode="&#59114;" d="M919.844 685.583H241.172l-11.765 97.06c-1.92 15.836-16.538 28.795-32.497 28.795h-6.446c-2.724 0-5.31-0.384-7.731-1.09h-82.96c-19.143 0-34.81-14.362-34.81-31.908s15.667-31.908 34.816-31.908h69.54l66.406-547.876c1.92-15.841 16.543-28.8 32.496-28.8h6.452c2.693 0 5.258 0.379 7.654 1.07H831.15c19.144 0 34.806 14.357 34.806 31.908 0 17.551-15.662 31.908-34.806 31.908H295.818l-8.13 67.113h545.177c15.954 0 31.893 12.728 35.42 28.288l74.153 327.147c3.528 15.555-6.64 28.288-22.594 28.288zM294.589 30.28c0-42.804 34.704-77.512 77.512-77.512s77.507 34.703 77.507 77.517c0 42.803-34.699 77.506-77.507 77.506s-77.517-34.703-77.517-77.511z m384.236 0c0-42.804 34.703-77.512 77.517-77.512s77.506 34.703 77.506 77.517c0 42.803-34.703 77.506-77.511 77.506-42.804 0-77.512-34.703-77.512-77.511z"  horiz-adv-x="1024" />

    
    <glyph glyph-name="bj_snow" unicode="&#59138;" d="M821.76 669.696c-0.512 0.512-1.024 1.024-2.048 1.536-2.56 1.536-4.608 2.56-7.168 3.584-1.024 0.512-2.048 1.024-3.584 1.536-30.208 15.36-61.952 24.576-94.72 27.648-49.664 74.24-133.632 119.808-222.72 119.808-120.32 0-224.256-78.848-257.024-193.536-2.56-1.024-5.12-2.048-8.192-2.56-3.072-1.024-5.632-2.048-8.704-3.072-45.056-17.92-82.944-48.128-109.568-86.528l-0.512-0.512c-3.584-5.12-7.168-10.752-10.752-16.384-0.512-0.512-0.512-1.536-1.024-2.048-3.072-5.12-5.632-10.24-8.192-15.872l-1.536-3.072c-2.56-5.12-4.608-10.752-6.656-16.384 0-0.512-0.512-1.536-1.024-2.048v-0.512c-9.216-25.6-14.336-53.248-14.336-81.92 0-133.12 108.544-241.664 241.664-241.664H686.08c151.04 0 273.408 122.88 273.408 273.408 0.512 102.912-55.296 191.488-137.728 238.592z m-135.168-460.8h-380.416c-105.472 0-191.488 86.016-191.488 191.488 0 31.744 8.192 61.952 22.016 88.576 1.024 1.536 1.536 3.584 2.56 5.12 4.096 7.168 8.704 14.336 13.824 20.992 1.536 1.536 2.56 3.584 4.096 5.632 5.12 6.144 10.752 12.288 16.384 17.92 1.536 1.536 3.584 3.072 5.12 5.12 6.144 5.632 12.8 10.752 19.456 15.36 1.536 1.024 3.584 2.56 5.12 3.584 7.68 4.608 15.872 9.216 24.064 12.8 1.024 0.512 2.048 1.024 3.072 1.024 9.728 4.096 19.456 7.68 29.696 9.728 23.04 5.632 47.616 7.168 72.704 3.584 13.312-2.048 26.112 7.168 28.16 20.992S353.28 636.928 339.968 638.976c-16.896 2.56-33.28 3.072-49.664 2.048 33.28 79.872 111.104 133.12 200.704 133.12 61.952 0 119.296-26.112 160.256-70.656-13.312-2.048-26.112-4.096-39.424-7.68-70.144-19.968-128.512-66.048-164.352-129.536-6.656-11.776-2.56-27.136 9.728-33.792 4.096-2.048 7.68-3.072 12.288-3.072 8.704 0 17.408 4.608 22.016 12.8 29.184 52.224 76.8 89.6 134.144 105.984 23.552 6.656 47.616 9.216 71.168 8.192 0.512 0 1.536-0.512 2.048-0.512 118.272-6.656 211.456-104.448 211.456-222.72-0.512-123.904-100.864-224.256-223.744-224.256z m-396.288-197.12l-27.136 15.872 27.136 15.872c10.24 6.144 15.36 17.92 10.24 26.112-4.608 8.192-16.896 10.24-27.648 4.096l-27.136-15.872v31.744c0 12.288-7.68 22.016-17.408 22.016s-17.408-9.728-17.408-22.016v-31.232l-27.136 15.36c-10.24 6.144-23.04 4.096-27.648-4.096-4.608-8.192 0-19.968 10.24-26.112l27.136-15.872-27.136-15.872c-10.24-6.144-15.36-17.92-10.24-26.112 4.608-8.192 16.896-10.24 27.648-4.096l27.136 15.872v-31.232c0-12.288 7.68-22.016 17.408-22.016s17.408 9.728 17.408 22.016v31.744l27.136-15.872c10.24-6.144 23.04-4.096 27.648 4.096 5.12 8.192 0.512 19.968-10.24 25.6z m261.12 0l-27.136 15.872 27.136 15.872c10.24 6.144 15.36 17.92 10.24 26.112-4.608 8.192-16.896 10.24-27.648 4.096l-27.136-15.872v31.744c0 12.288-7.68 22.016-17.408 22.016s-17.408-9.728-17.408-22.016v-31.232l-27.136 15.36c-10.24 6.144-23.04 4.096-27.648-4.096-4.608-8.192 0-19.968 10.24-26.112l27.136-15.872-27.136-15.872c-10.24-6.144-15.36-17.92-10.24-26.112 4.608-8.192 16.896-10.24 27.648-4.096l27.136 15.872v-31.232c0-12.288 7.68-22.016 17.408-22.016s17.408 9.728 17.408 22.016v31.744l27.136-15.872c10.24-6.144 23.04-4.096 27.648 4.096 5.12 8.192 0.512 19.968-10.24 25.6z m261.12 0l-27.136 15.872 27.136 15.872c10.24 6.144 15.36 17.92 10.24 26.112-4.608 8.192-16.896 10.24-27.648 4.096l-27.136-15.872v31.744c0 12.288-7.68 22.016-17.408 22.016s-17.408-9.728-17.408-22.016v-31.232l-27.136 15.36c-10.24 6.144-23.04 4.096-27.648-4.096-4.608-8.192 0-19.968 10.24-26.112l27.136-15.872-27.136-15.872c-10.24-6.144-15.36-17.92-10.24-26.112 4.608-8.192 16.896-10.24 27.648-4.096l27.136 15.872v-31.232c0-12.288 7.68-22.016 17.408-22.016s17.408 9.728 17.408 22.016v31.744l27.136-15.872c10.24-6.144 23.04-4.096 27.648 4.096 4.608 8.192 0 19.968-10.24 25.6z"  horiz-adv-x="1024" />

    
    <glyph glyph-name="bj_store" unicode="&#59139;" d="M883.712 274.944c-14.336 0-25.6-11.264-25.6-25.6v-247.808c0-22.528-18.432-40.96-40.96-40.96H205.824c-22.528 0-40.96 18.432-40.96 40.96V249.344c0 14.336-11.264 25.6-25.6 25.6s-25.6-11.264-25.6-25.6v-247.808c0-50.688 41.472-92.16 92.16-92.16h610.816c50.688 0 92.16 41.472 92.16 92.16V249.344c0.512 14.336-10.752 25.6-25.088 25.6zM1009.152 510.464C978.944 729.088 860.16 846.848 855.04 851.968l-7.68 7.168H177.152L169.472 851.968c-5.12-5.12-123.904-122.88-153.6-340.992-12.8-93.696 26.112-165.888 104.448-194.56C143.36 308.224 167.936 304.128 192.512 304.128c64.512 0 130.048 27.648 174.08 75.776 22.528-25.088 66.048-60.928 142.336-61.44h7.168c76.288 0.512 119.808 36.352 142.336 61.44 44.032-48.128 109.568-75.776 174.08-75.776 24.576 0 49.152 4.096 72.192 12.288 77.824 28.672 117.248 100.864 104.448 194.048z m-121.856-145.92c-61.952-22.528-155.648-3.072-203.776 66.56V638.464c0 14.336-11.264 25.6-25.6 25.6s-25.6-11.264-25.6-25.6v-208.896c-6.144-11.776-33.792-53.76-119.296-58.88-87.04 5.632-114.688 49.152-119.808 59.904V638.464c0 14.336-11.264 25.6-25.6 25.6s-25.6-11.264-25.6-25.6v-208.384C293.376 360.96 200.192 342.016 138.24 364.032c-55.808 20.992-81.408 70.144-71.68 139.264C90.112 675.328 174.08 780.288 198.656 807.936h627.2C850.432 780.288 934.4 675.84 957.952 503.808c9.728-69.632-15.36-118.784-70.656-139.264z"  horiz-adv-x="1024" />

    
    <glyph glyph-name="bj_sleet" unicode="&#59140;" d="M821.76 662.528c-0.512 0.512-1.024 1.024-2.048 1.536-2.56 1.536-4.608 2.56-7.168 3.584-1.024 0.512-2.048 1.024-3.584 1.536-30.208 15.36-61.952 24.576-94.72 27.648-49.152 74.24-133.632 119.808-222.72 119.808-120.32 0-224.256-78.848-257.024-193.536-2.56-1.024-5.12-2.048-8.192-2.56-3.072-1.024-5.632-2.048-8.704-3.072-45.056-17.92-82.944-48.128-109.568-86.528l-0.512-0.512c-3.584-5.12-7.168-10.752-10.752-16.384-0.512-0.512-0.512-1.536-1.024-2.048-3.072-5.12-5.632-10.24-8.192-15.872l-1.536-3.072c-2.56-5.12-4.608-10.752-6.656-16.384 0-0.512-0.512-1.536-1.024-2.048v-0.512c-9.216-25.6-14.336-53.248-14.336-81.92 0-133.12 108.544-241.664 241.664-241.664H686.08c151.04 0 273.408 122.88 273.408 273.408 0 102.4-55.296 191.488-137.728 238.592zM686.08 201.728h-380.416c-105.472 0-191.488 86.016-191.488 191.488 0 31.744 8.192 61.952 22.016 88.576 1.024 1.536 1.536 3.584 2.56 5.12 4.096 7.168 8.704 14.336 13.824 20.992 1.536 1.536 2.56 3.584 4.096 5.632 5.12 6.144 10.752 12.288 16.384 17.92 1.536 1.536 3.584 3.072 5.12 5.12 6.144 5.632 12.8 10.752 19.456 15.36 1.536 1.024 3.584 2.56 5.12 3.584 7.68 4.608 15.872 9.216 24.064 12.8 1.024 0.512 2.048 1.024 3.072 1.024 9.728 4.096 19.456 7.68 29.696 9.728 23.04 5.632 47.616 7.168 72.704 3.584 13.312-2.048 26.112 7.168 28.16 20.992 2.048 13.824-7.68 26.112-20.992 28.16-16.896 2.56-33.28 3.072-49.664 2.048 33.28 79.872 111.104 133.12 200.704 133.12 61.952 0 119.296-26.112 160.256-70.656-13.312-2.048-26.112-4.096-39.424-7.68-70.144-19.968-128.512-66.048-164.352-129.536-6.656-11.776-2.56-27.136 9.728-33.792 4.096-2.048 7.68-3.072 12.288-3.072 8.704 0 17.408 4.608 22.016 12.8 29.184 52.224 76.8 89.6 134.144 105.984 23.552 6.656 47.616 9.216 71.168 8.192 0.512 0 1.536-0.512 2.048-0.512 118.272-6.656 211.456-104.448 211.456-222.72 0-123.904-100.352-224.256-223.744-224.256z m-250.368-206.336l-18.944 19.456 26.112 6.656c10.24 2.56 16.896 11.264 14.848 18.944-2.048 8.192-11.776 12.288-22.016 9.728l-26.112-6.656 7.68 26.112c3.072 10.24-1.024 19.968-9.216 22.528-7.68 2.048-16.896-4.096-19.456-14.336l-7.68-26.112-18.944 19.456c-7.168 7.68-17.92 9.216-24.064 3.072-6.144-5.632-4.608-16.384 2.56-24.064l18.944-19.456-26.112-6.656c-10.24-2.56-16.896-11.264-14.848-18.944 2.048-8.192 11.776-12.288 22.016-9.728l26.112 6.656-7.68-26.112c-3.072-10.24 1.024-19.968 9.216-22.528 8.192-2.56 16.896 4.096 19.456 14.336l7.68 26.112 18.944-19.456c7.168-7.68 17.92-9.216 24.064-3.072 6.144 5.632 5.12 16.384-2.56 24.064z m367.104 0l-18.944 19.456 26.112 6.656c10.24 2.56 16.896 11.264 14.848 18.944-2.048 7.68-11.776 12.288-22.016 9.728l-26.112-6.656 7.68 26.112c3.072 10.24-1.024 19.968-9.216 22.528-7.68 2.048-16.896-4.096-19.456-14.336l-7.68-26.112-18.944 19.456c-7.168 7.68-17.92 9.216-24.064 3.072-6.144-5.632-4.608-16.384 2.56-24.064l18.944-19.456-26.112-6.656c-10.24-2.56-16.896-11.264-14.848-18.944 2.048-7.68 11.776-12.288 22.016-9.728l26.112 6.656-7.68-26.112c-3.072-10.24 1.024-19.968 9.216-22.528 7.68-2.048 16.896 4.096 19.456 14.336l7.68 26.112 18.944-19.456c7.168-7.68 17.92-9.216 24.064-3.072 5.632 5.632 4.608 16.384-2.56 24.064zM257.536 107.008c-3.584 2.048-8.192 1.536-11.776-1.024L158.208 43.008c-11.776-11.776-17.92-27.136-17.92-43.52 0-33.792 27.648-61.44 61.44-61.44s61.44 27.648 61.44 61.44v97.792c0.512 4.096-2.048 7.68-5.632 9.728z m-15.872-107.52c0-21.504-17.408-39.424-39.424-39.424-22.016 0-39.424 17.92-39.424 39.424 0 10.752 4.096 20.48 10.24 26.624l68.608 49.152v-75.776z m390.656 107.52c-3.584 2.048-8.192 1.536-11.776-1.024L532.992 43.008c-11.776-11.776-17.92-27.136-17.92-43.52 0-33.792 27.648-61.44 61.44-61.44s61.44 27.648 61.44 61.44v97.792c0 4.096-2.048 7.68-5.632 9.728z m-16.384-107.52c0-21.504-17.408-39.424-39.424-39.424s-39.424 17.92-39.424 39.424c0 10.752 4.096 20.48 10.24 26.624l68.608 49.152v-75.776z"  horiz-adv-x="1024" />

    
    <glyph glyph-name="bj_tcdan" unicode="&#59057;" d="M1005.056-71.168l-251.392 251.392c65.536 74.752 104.96 172.032 104.96 279.04C859.136 692.736 668.672 882.688 435.2 882.688S11.776 692.736 11.776 459.264s189.952-423.936 423.936-423.936c108.544 0 207.36 40.96 282.624 108.544l250.88-250.88c5.12-5.12 11.776-7.68 17.92-7.68s13.312 2.56 17.92 7.68c9.728 9.728 9.728 26.112 0 35.84zM435.2 86.528c-205.312 0-372.736 166.912-372.736 372.736S229.888 831.488 435.2 831.488c205.312 0 372.736-166.912 372.736-372.736s-167.424-372.224-372.736-372.224zM621.056 484.864H460.8V645.12c0 14.336-11.264 25.6-25.6 25.6s-25.6-11.264-25.6-25.6v-160.256H249.344c-14.336 0-25.6-11.264-25.6-25.6s11.264-25.6 25.6-25.6H409.6V273.408c0-14.336 11.264-25.6 25.6-25.6s25.6 11.264 25.6 25.6V433.664h160.256c14.336 0 25.6 11.264 25.6 25.6s-11.264 25.6-25.6 25.6z"  horiz-adv-x="1024" />

    
    <glyph glyph-name="bj_up" unicode="&#59067;" d="M207.872 226.816c11.264-11.264 28.672-11.264 39.936 0L509.44 488.448l267.264-261.632c11.264-11.264 28.672-11.264 39.936 0s11.264 28.672 0 39.936l-284.672 284.672c-11.264 11.264-28.672 11.264-39.936 0L207.36 266.752c-10.752-11.264-10.752-28.16 0.512-39.936z"  horiz-adv-x="1024" />

    
    <glyph glyph-name="bj_top" unicode="&#59115;" d="M511.488 584.192c-69.12 0-124.928-55.808-124.928-124.928s55.808-124.928 124.928-124.928 124.928 55.808 124.928 124.928-55.808 124.928-124.928 124.928z m0-209.92c-46.592 0-84.992 38.4-84.992 84.992s38.4 84.992 84.992 84.992c46.592 0 84.992-38.4 84.992-84.992s-37.888-84.992-84.992-84.992z m337.408-174.08h-96.768c6.656 53.248 6.656 121.344 6.656 205.824 0 257.024-193.536 462.336-247.296 462.336S264.192 665.088 264.192 406.016c0-84.48 0-152.064 6.144-205.824H167.424v-169.984h50.176V150.528h62.464c22.016-82.944 75.776-117.76 206.848-121.856v-128.512h50.176v128.512c129.536 3.584 183.808 38.912 206.336 121.856h62.976v-120.32h50.176V200.192h-7.68zM473.088 785.408c17.92 17.92 31.232 27.136 38.4 31.232 7.168-4.096 20.48-13.312 38.912-31.232 11.264-10.752 25.6-27.136 42.496-48.64l-3.072 3.584c-25.088-3.072-51.2-4.608-77.824-4.608s-52.736 1.536-78.336 4.608c14.848 19.456 28.672 34.816 39.424 45.056z m142.336-81.92c-4.608 6.656-8.704 13.312-13.312 19.456 4.608-6.656 8.704-12.8 13.312-19.456z m-13.312 19.456c-2.048 3.072-4.096 6.144-6.144 8.704 2.048-3.072 4.096-5.632 6.144-8.704z m-6.144 8.704c-1.024 1.536-2.048 2.56-3.072 4.096 1.024-1.536 2.048-2.56 3.072-4.096z m87.552-597.504c-10.24-19.456-24.064-31.232-47.104-39.936-23.552-9.216-56.32-14.336-99.84-15.36V200.704H486.4V78.848c-43.52 1.536-76.8 6.656-100.352 15.36-22.528 8.704-36.864 20.48-47.104 39.424-25.088 47.104-25.088 139.264-25.088 266.752V406.528c0 51.712 8.704 104.96 25.6 157.184 14.848 45.568 35.328 89.6 61.44 131.072 3.072 4.608 5.632 9.216 8.704 13.824l-3.072-5.12c32.768-5.12 68.096-8.192 104.448-7.68 36.352 0 71.168 2.56 103.936 7.68 2.048-3.072 4.096-6.144 6.144-9.728 26.112-41.472 46.592-85.504 61.44-131.072 16.896-52.224 25.6-104.96 25.6-156.16 0.512-130.048 0.512-223.744-24.576-272.384zM433.152 739.84c-1.024-1.536-2.048-2.56-3.072-4.096 1.024 1.536 2.048 3.072 3.072 4.096z m-3.072-4.096c-2.048-2.56-4.096-5.632-6.144-8.704 2.048 3.072 4.096 6.144 6.144 8.704z m-6.656-8.704c-1.024-1.536-2.048-3.072-3.072-4.096 1.024 1.536 2.048 3.072 3.072 4.096z m-3.072-4.608c-3.072-4.608-6.656-9.216-9.728-13.824 3.072 5.12 6.656 9.728 9.728 13.824z"  horiz-adv-x="1024" />

    
    <glyph glyph-name="bj_sunny" unicode="&#59143;" d="M512 651.776c-147.968 0-267.776-120.32-267.776-267.776 0-147.968 120.32-267.776 267.776-267.776 147.456 0 267.776 120.32 267.776 267.776 0 147.456-120.32 267.776-267.776 267.776z m0-472.576c-112.64 0-204.8 91.648-204.8 204.8 0 112.64 91.648 204.8 204.8 204.8 112.64 0 204.8-91.648 204.8-204.8s-91.648-204.8-204.8-204.8zM512 698.368c8.704 0 15.872 7.168 15.872 15.872v101.376c0 8.704-7.168 15.872-15.872 15.872-8.704 0-15.872-7.168-15.872-15.872v-101.376c0-8.704 7.168-15.872 15.872-15.872z m-178.688-36.352c3.072-5.12 8.192-7.68 13.824-7.68 2.56 0 5.632 0.512 7.68 2.048 7.68 4.096 10.24 13.824 5.632 21.504l-50.688 88.064c-4.608 7.68-13.824 10.24-21.504 5.632-7.68-4.608-10.24-13.824-5.632-21.504-0.512 0 50.688-88.064 50.688-88.064zM233.984 562.688l-88.064 50.688c-7.68 4.608-17.408 2.048-21.504-5.632-4.608-7.68-2.048-17.408 5.632-21.504l88.064-50.688c2.56-1.536 5.12-2.048 7.68-2.048 5.632 0 10.752 3.072 13.824 8.192 4.608 7.168 2.048 16.896-5.632 20.992z m-36.352-178.688c0 8.704-7.168 15.872-15.872 15.872H79.872c-8.704 0-15.872-7.168-15.872-15.872 0-8.704 7.168-15.872 15.872-15.872h101.376c9.216 0 16.384 7.168 16.384 15.872z m20.48-151.552l-88.064-50.688c-7.68-4.608-10.24-13.824-5.632-21.504 2.56-5.12 8.192-8.192 13.824-8.192 2.56 0 5.632 0.512 7.68 2.048l88.064 50.688c7.68 4.096 10.24 13.824 5.632 21.504-4.608 7.68-13.824 10.752-21.504 6.144z m136.704-120.832c-7.68 4.096-17.408 1.536-21.504-5.632l-50.688-88.064c-4.608-7.68-2.048-17.408 5.632-21.504 2.56-1.536 5.12-2.048 7.68-2.048 5.632 0 10.752 2.56 13.824 7.68l50.688 88.064c4.608 7.168 2.048 16.896-5.632 21.504z m157.184-41.984c-8.704 0-15.872-7.168-15.872-15.872v-101.376c0-8.704 7.168-15.872 15.872-15.872 8.704 0 15.872 7.168 15.872 15.872v101.376c0 8.704-7.168 15.872-15.872 15.872z m178.688 35.84c-4.608 7.68-14.336 10.24-21.504 5.632-7.68-4.608-10.24-13.824-5.632-21.504l50.688-88.064c3.072-5.12 8.192-7.68 13.824-7.68 2.56 0 5.632 0.512 7.68 2.048 7.68 4.608 10.24 14.336 5.632 21.504l-50.688 88.064z m203.264 76.288L805.888 232.448c-7.68 4.096-17.408 2.048-21.504-5.632-4.608-7.68-2.048-17.408 5.632-21.504l88.064-50.688c2.56-1.536 5.12-2.048 8.192-2.048 5.632 0 10.752 3.072 13.824 8.192 4.096 6.656 1.536 16.384-6.144 20.992z m50.176 218.112h-101.376c-8.704 0-15.872-7.168-15.872-15.872 0-8.704 7.168-15.872 15.872-15.872h101.376c8.704 0 15.872 7.168 15.872 15.872-0.512 8.704-7.168 15.872-15.872 15.872z m-145.92 133.12c2.56 0 5.632 0.512 7.68 2.048l88.064 50.688c7.68 4.096 10.24 13.824 5.632 21.504-4.096 7.68-13.824 10.24-21.504 5.632l-88.064-50.688c-7.68-4.608-10.24-14.336-5.632-21.504 3.072-4.608 8.192-7.68 13.824-7.68zM669.184 656.384c2.56-1.536 5.12-2.048 7.68-2.048 5.632 0 10.752 3.072 13.824 7.68l50.688 88.064c4.608 7.68 1.536 17.408-5.632 21.504-7.68 4.608-17.408 2.048-21.504-5.632L663.552 677.888c-4.608-7.68-2.048-17.408 5.632-21.504z"  horiz-adv-x="1024" />

    
    <glyph glyph-name="bj_up1" unicode="&#59068;" d="M275.968 266.24L512 502.272l236.032-236.032H275.968z"  horiz-adv-x="1024" />

    
    <glyph glyph-name="bj_user" unicode="&#59145;" d="M1002.496-24.576c-48.128 177.152-187.392 311.296-359.424 357.376 89.088 48.128 150.016 142.336 150.016 250.368 0 156.672-127.488 284.16-284.16 284.16S224.768 740.352 224.768 583.168c0-156.672 127.488-284.16 284.16-284.16h3.072c205.824 0 387.072-138.752 440.832-336.896 1.024-3.584-0.512-6.144-1.536-7.168-1.024-1.024-3.072-3.072-6.656-3.072h-865.28c-3.584 0-5.632 2.048-6.656 3.072-1.024 1.024-2.56 4.096-1.536 7.168 30.72 112.64 102.4 208.384 202.24 269.824 12.288 7.168 15.872 23.04 8.192 35.328-7.168 12.288-23.04 15.872-35.328 8.192-111.104-68.096-190.976-174.592-224.768-300.032-5.12-17.92-1.024-36.864 10.24-51.712 11.264-14.848 28.672-23.552 47.104-23.552h865.792c18.944 0 35.84 8.704 47.104 23.552 11.776 14.848 15.36 33.792 10.752 51.712zM275.968 583.168c0 128.512 104.448 232.96 232.96 232.96s232.96-104.448 232.96-232.96S637.44 350.208 508.928 350.208 275.968 455.168 275.968 583.168z"  horiz-adv-x="1024" />

    
    <glyph glyph-name="bj_upload" unicode="&#59116;" d="M882.176-35.84H141.824c-43.008 0-77.824 34.816-77.824 77.824V408.576c0 14.336 11.264 25.6 25.6 25.6s25.6-11.264 25.6-25.6v-366.592c0-14.848 11.776-26.624 26.624-26.624h740.352c14.848 0 26.624 11.776 26.624 26.624V408.576c0 14.336 11.264 25.6 25.6 25.6s25.6-11.264 25.6-25.6v-366.592c0-43.008-34.816-77.824-77.824-77.824zM777.728 546.304l-249.856 249.856c-1.024 1.024-2.56 2.048-4.096 3.072-0.512 0.512-1.536 0.512-2.048 1.024-1.024 0.512-1.536 1.024-2.56 1.536-1.024 0.512-1.536 0.512-2.56 1.024-0.512 0-1.536 0.512-2.048 0.512-1.536 0.512-3.072 0.512-4.608 0.512-1.536 0-3.072 0-4.608-0.512-1.024 0-1.536-0.512-2.048-0.512-1.024 0-1.536-0.512-2.56-1.024s-1.536-1.024-2.56-1.536c-0.512-0.512-1.536-0.512-2.048-1.024-1.536-1.024-2.56-2.048-3.584-3.072l-245.76-245.76c-10.24-10.24-10.24-26.112 0-36.352 5.12-5.12 11.776-7.68 17.92-7.68s13.312 2.56 17.92 7.68l201.728 201.728v-547.84c0-14.336 11.264-25.6 25.6-25.6s25.6 11.264 25.6 25.6V716.288l206.336-206.336c5.12-5.12 11.776-7.68 17.92-7.68s13.312 2.56 17.92 7.68c10.24 10.24 10.24 26.112 0 36.352z"  horiz-adv-x="1024" />

    
    <glyph glyph-name="bj_tcduo" unicode="&#59062;" d="M601.177177-118.774775c-22.550551 0-45.613614 6.662663-66.626626 18.962963l-139.915916 76.876877-2.05005 2.05005c-46.638639 41.001001-72.776777 99.93994-72.776777 161.441442V439.351351L29.725726 740.196196c-23.575576 24.600601-30.238238 59.963964-16.912913 91.227227 13.325325 31.775776 43.051051 51.251251 77.389389 51.251252h841.545546c34.338338 0 64.064064-19.475475 77.389389-51.251252 13.325325-31.775776 7.175175-66.626627-16.912913-91.227227l-289.569569-300.844845v-458.186186c0-37.413413-17.937938-69.189189-48.688689-86.614614-15.887888-8.712713-34.338338-13.325325-52.788789-13.325326z m-176.816817 138.378379l136.328329-75.33934c22.550551-13.837838 48.688689-15.887888 68.164164-5.125125 10.25025 5.637638 22.550551 17.937938 22.55055 42.026026V459.851852l303.91992 315.707708c13.837838 14.35035 8.712713 31.263263 6.662663 35.875875-2.05005 4.612613-10.25025 19.987988-30.238238 19.987988H90.202202c-19.987988 0-28.188188-15.375375-30.238238-19.987988-2.05005-4.612613-7.175175-21.013013 6.662663-35.875875l303.91992-315.707708v-318.782783c0-46.126126 19.475475-90.202202 53.813813-121.465465z"  horiz-adv-x="1025" />

    
    <glyph glyph-name="bj_update" unicode="&#59083;" d="M512 825.856c243.712 0 442.368-198.144 442.368-442.368 0-243.712-198.144-442.368-442.368-442.368s-442.368 198.144-442.368 442.368S268.288 825.856 512 825.856m0 51.2c-272.384 0-493.568-220.672-493.568-493.568 0-272.384 220.672-493.568 493.568-493.568s493.568 220.672 493.568 493.568-221.184 493.568-493.568 493.568zM631.808 539.648l-24.064-26.624c-6.144-6.656-2.56-17.408 6.656-18.944l129.024-21.504c8.192-1.536 14.848 6.144 12.8 14.336l-32.768 126.464c-2.048 8.704-13.312 11.264-19.456 4.608l-24.064-26.624c-18.432 9.728-276.992 138.752-411.136-157.696-1.024 0 121.344 231.936 363.008 105.984z m-286.72-363.52c18.432-9.728 276.992-138.752 411.136 157.696 0 0-122.368-232.448-363.52-105.984l24.064 26.624c6.144 6.656 2.56 17.408-6.656 18.944l-129.024 21.504c-8.192 1.536-14.848-6.144-12.8-14.336l32.768-126.464c2.048-8.704 13.312-11.264 19.456-4.608l24.576 26.624z"  horiz-adv-x="1024" />

    
    <glyph glyph-name="bj_warning" unicode="&#59066;" d="M983.552 583.168c-27.136 62.464-63.488 116.736-110.08 162.816S773.12 828.928 711.168 855.552s-128.512 40.448-199.168 40.448c-70.656 0-137.216-13.312-199.168-40.448S196.608 792.064 150.528 745.984c-46.592-46.08-82.944-100.352-110.08-162.816-27.136-62.464-40.448-129.024-40.448-199.68s13.312-137.216 40.448-198.656c27.136-61.952 63.488-116.224 110.08-162.304 46.08-46.08 100.352-82.944 162.304-109.568 61.952-27.136 128.512-40.448 199.168-40.448 70.656 0 137.216 13.312 199.168 40.448 61.952 27.136 116.224 63.488 162.304 109.568 46.08 46.08 82.944 100.352 110.08 162.304 27.136 61.952 40.448 128 40.448 198.656 0 70.656-13.312 137.216-40.448 199.68z m-471.552-496.64c-28.672 0-52.224 23.552-52.224 52.224s23.552 52.224 52.224 52.224 52.224-23.552 52.224-52.224-23.552-52.224-52.224-52.224z m52.224 216.576c0-28.672-23.552-52.224-52.224-52.224s-52.224 23.552-52.224 52.224V629.76c0 28.672 23.552 52.224 52.224 52.224s52.224-23.552 52.224-52.224v-326.656z"  horiz-adv-x="1024" />

    
    <glyph glyph-name="bj_wifi" unicode="&#59120;" d="M512 35.328c-6.656 0-22.016 12.288-46.592 36.864-24.576 24.576-36.352 39.936-36.352 46.592 0 10.752 10.24 19.456 31.232 27.136 20.992 7.168 37.888 10.752 51.712 10.752s30.72-3.584 51.712-10.752c20.992-7.168 31.232-16.384 31.232-27.136 0-6.656-12.288-22.016-36.352-46.592-24.576-24.576-39.936-36.864-46.592-36.864z m134.656 135.68c-0.512 0-7.168 4.096-19.968 12.288S596.992 200.192 576 208.384s-42.496 12.288-64 12.288c-21.504 0-43.008-4.096-64-12.288-20.992-8.192-37.888-16.384-50.688-25.088s-18.944-12.8-19.968-12.288c-6.144 0-21.504 12.288-46.592 37.376s-37.888 40.448-37.888 46.592c0 4.096 1.536 8.192 5.12 11.264 26.112 25.6 58.368 45.568 97.792 60.416C435.2 341.504 474.112 348.672 512 348.672s77.312-7.168 116.224-22.016c39.424-14.848 72.192-34.816 97.792-60.416 3.072-3.072 5.12-7.168 5.12-11.264 0-6.144-12.8-21.504-37.888-46.592s-40.448-37.376-46.592-37.376z m136.704 135.68c-3.584 0-7.68 1.536-11.264 4.096-45.056 34.816-87.04 60.928-125.952 77.312-38.912 16.384-83.456 24.576-134.144 24.576-28.16 0-56.832-3.584-84.992-10.752-28.672-7.168-53.248-16.384-74.24-26.624s-39.936-20.48-56.832-30.72-29.696-18.944-39.424-26.624c-9.728-7.168-14.848-10.752-15.36-10.752-5.632 0-20.992 12.288-46.08 37.376s-37.376 40.448-37.376 46.592c0 4.096 1.536 7.68 5.12 10.752 44.032 44.032 97.28 78.336 159.744 102.4s125.952 36.352 189.952 36.352S640 528.384 702.464 504.32s115.712-58.368 159.744-102.4c3.072-3.072 5.12-7.168 5.12-10.752 0-6.144-12.288-21.504-37.376-46.592-25.6-25.088-40.96-37.888-46.592-37.888z m135.168 135.68c-3.584 0-7.168 1.536-10.752 4.608-59.392 52.224-121.344 91.648-185.856 118.272S587.776 605.184 512 605.184s-145.92-13.312-209.92-39.936S176.128 499.2 116.224 446.976c-3.584-3.072-7.168-4.608-10.752-4.608-5.632 0-20.992 12.288-46.08 37.376s-37.888 40.448-37.888 46.592c0 4.096 1.536 8.192 5.12 11.264 62.464 61.952 136.192 110.08 222.208 143.872 86.016 33.792 173.568 51.2 263.168 51.2s177.152-16.896 263.168-51.2c86.016-33.792 160.256-81.92 222.208-143.872 3.072-3.072 5.12-7.168 5.12-11.264 0-6.144-12.8-21.504-37.888-46.592s-40.448-37.376-46.08-37.376z"  horiz-adv-x="1024" />

    
    <glyph glyph-name="bj_woman" unicode="&#59148;" d="M916.48 13.312l-37.888 126.976c-21.504 76.288-81.92 135.68-158.72 156.16l-10.752 3.072h-4.608c-14.336 3.072-29.696-1.536-39.936-11.776-35.84-47.616-91.136-76.288-150.528-79.36-59.904 3.072-115.712 31.744-152.576 78.848-10.24 11.264-26.112 16.384-40.96 12.288h-4.608l-10.24-3.072c-77.312-19.968-137.728-79.872-159.232-156.672L106.496 12.288c-4.096-15.36-1.024-31.744 8.704-44.032 9.728-12.8 25.088-19.968 40.96-19.456h712.192c15.872 0.512 30.72 8.192 40.448 20.992 9.216 12.8 11.776 28.672 7.68 43.52z m-49.152-14.336c-3.072-4.096-7.68-6.656-13.312-6.656H168.96c-4.608-0.512-9.216 1.536-11.776 5.632-3.072 4.096-4.608 9.216-3.072 14.336l36.864 118.272c19.456 61.952 70.144 109.056 133.12 123.904l9.216 2.56h3.072c2.56 1.024 5.12 1.024 7.68 0 40.96-50.688 102.4-81.92 167.424-84.992 65.536 2.048 127.488 32.768 168.448 83.968 2.56 1.024 5.632 1.024 8.192 0h3.072l10.24-3.072c62.464-15.36 112.64-62.464 131.072-123.904l35.328-116.224c2.048-4.096 2.048-9.216 0-13.824h-0.512zM186.368 371.2l23.552-6.144c64.512-15.872 130.048-26.112 196.096-31.744 28.16-30.208 67.584-48.128 109.056-49.152 41.472 1.024 80.896 18.944 109.056 49.664 64 5.632 128 15.872 190.464 31.232l23.552 6.144c9.728 3.072 17.92 10.752 22.016 19.968 4.608 9.216 4.608 19.968 0 29.184L795.648 529.408c-20.992 36.864-38.4 76.288-51.712 116.736l-9.216 9.728c-22.528 72.704-79.872 129.536-153.088 150.528l-10.24 3.584c-40.96 11.264-83.968 11.264-124.416 0l-9.216-3.072c-73.728-20.992-131.584-77.824-153.6-151.04L280.576 642.048c-13.824-40.96-31.744-79.872-54.272-116.224L163.328 416.768c-5.12-9.728-5.12-21.504 0-31.232 5.12-8.192 13.824-13.312 23.04-14.336z m326.656-46.08c-75.776 0-142.336 92.672-149.504 202.24 118.272-23.04 178.688 25.088 201.216 61.44 24.576-27.648 61.952-39.936 97.792-32.256v-9.728c0-117.76-70.144-221.696-149.504-221.696zM269.824 512.512c21.504 36.864 38.912 75.776 51.2 116.224l3.072 15.36c16.384 57.856 62.976 101.888 121.856 114.688l8.704 3.072c36.864 9.216 75.776 9.216 112.64 0l10.24-3.072c55.808-14.336 99.84-57.344 114.688-113.152l6.144-19.456c12.8-39.424 29.696-77.824 50.688-113.664L808.96 412.16l-23.04-5.632c-46.08-11.264-93.184-19.968-140.288-25.088 33.792 51.2 51.712 111.616 51.2 173.056 1.024 10.752 1.024 21.504 0 32.256-1.024 4.608-3.584 8.704-7.68 11.264-4.096 1.536-8.704 1.536-13.312 0-35.328-15.36-76.8-1.024-94.72 33.28-3.584 5.12-9.216 8.192-15.36 7.68-6.656 0.512-12.288-3.072-15.36-8.704-17.408-28.672-67.072-95.232-202.752-61.44-5.12 1.024-10.24 0-14.336-3.072-4.096-3.072-6.144-7.68-6.144-12.288 0-60.928 17.408-120.832 50.688-172.544-49.152 5.12-97.792 13.824-145.92 25.088L210.432 411.648l59.392 100.864z"  horiz-adv-x="1024" />

    
    </font>
</defs>
</svg>
