<?xml version="1.0" standalone="no"?>
<!DOCTYPE svg PUBLIC "-//W3C//DTD SVG 1.1//EN" "http://www.w3.org/Graphics/SVG/1.1/DTD/svg11.dtd" >
<!--
2013-9-30: Created.
-->
<svg>
<metadata>
Created by iconfont
</metadata>
<defs>

<font id="iconfont" horiz-adv-x="1024" >
  <font-face
    font-family="iconfont"
    font-weight="500"
    font-stretch="normal"
    units-per-em="1024"
    ascent="896"
    descent="-128"
  />
    <missing-glyph />
    
    <glyph glyph-name="xialadanxuan" unicode="&#58913;" d="M1013.76-35.84L778.24 189.44c61.44 71.68 92.16 163.84 92.16 266.24C870.4 701.44 675.84 896 430.08 896 194.56 896 0 701.44 0 465.92 0 353.28 40.96 250.88 112.64 179.2h143.36C163.84 240.64 102.4 343.04 102.4 465.92 102.4 650.24 245.76 793.6 430.08 793.6s327.68-153.6 327.68-327.68c0-153.6-112.64-296.96-266.24-327.68 0-10.24 10.24-10.24 10.24-20.48 10.24-20.48 10.24-51.2 0-71.68 71.68 10.24 133.12 51.2 194.56 81.92l235.52-235.52c20.48-20.48 51.2-20.48 71.68 0 20.48 10.24 20.48 51.2 10.24 71.68zM583.68 517.12h-102.4v102.4c0 30.72-20.48 51.2-51.2 51.2-20.48 0-51.2-30.72-51.2-51.2v-102.4h-102.4c-20.48 0-51.2-30.72-51.2-51.2 0-30.72 20.48-51.2 51.2-51.2h102.4v-102.4c0-30.72 30.72-51.2 51.2-51.2 30.72 0 51.2 20.48 51.2 51.2v102.4h102.4c30.72 0 51.2 20.48 51.2 51.2 0 20.48-20.48 51.2-51.2 51.2zM409.6 76.8l-204.8-204.8-204.8 204.8z"  horiz-adv-x="1024" />

    
    <glyph glyph-name="xialaduoxuan" unicode="&#58914;" d="M923.424768 896H104.224768C12.064768 896-28.895232 793.6 22.304768 732.16L309.024768 414.72V179.2h102.4V455.68l-30.72 20.48L104.224768 793.6h819.2L636.704768 476.16l-20.48-30.72V-25.6l-112.64 61.44c0-10.24-10.24-20.48-20.48-30.72l-51.2-61.44L616.224768-128c51.2 0 102.4 51.2 102.4 102.4V404.48l286.72 317.44C1056.544768 793.6 1005.344768 896 923.424768 896zM206.624768-128l204.8 204.8H1.824768z"  horiz-adv-x="1025" />

    
    <glyph glyph-name="liuchengtiaojian" unicode="&#59058;" d="M864 832H162c-35.2 0-64-28.8-64-64v-768c0-35.2 28.8-64 64-64h702c35.2 0 64 28.8 64 64V768c0 35.2-28.8 64-64 64Zm0-831.9l-0.1-0.1H162.1l-0.1 0.1V767.9l0.1 0.1h701.8l0.1-0.1v-767.8ZM387.1 712.9c-8.2 0-16.4-3.1-22.6-9.4l-50.9-50.9-19.8 19.8c-6.2 6.2-14.4 9.4-22.6 9.4s-16.4-3.1-22.6-9.4c-12.5-12.5-12.5-32.8 0-45.3l19.8-19.8 22.6-22.6c6.2-6.2 14.4-9.4 22.6-9.4 8.2 0 16.4 3.1 22.6 9.4l22.6 22.6 50.9 50.9c12.5 12.5 12.5 32.8 0 45.3-6.2 6.3-14.4 9.4-22.6 9.4ZM744 676.1H514c-17.7 0-32-14.3-32-32s14.3-32 32-32h230c17.7 0 32 14.3 32 32s-14.3 32-32 32ZM409.7 501.5c-6.2 6.2-14.4 9.4-22.6 9.4s-16.4-3.1-22.6-9.4l-50.9-50.9-19.8 19.8c-6.2 6.2-14.4 9.4-22.6 9.4s-16.4-3.1-22.6-9.4c-12.5-12.5-12.5-32.8 0-45.3l19.8-19.8 22.6-22.6c6.2-6.2 14.4-9.4 22.6-9.4 8.2 0 16.4 3.1 22.6 9.4l22.6 22.6 50.9 50.9c12.5 12.6 12.5 32.8 0 45.3ZM744 474.1H514c-17.7 0-32-14.3-32-32s14.3-32 32-32h230c17.7 0 32 14.3 32 32s-14.3 32-32 32Z"  horiz-adv-x="1024" />

    
    <glyph glyph-name="flow-line" unicode="&#58942;" d="M232.5504 330.5472c3.9936-3.9936 9.216-5.9392 14.5408-5.9392 5.2224 0 10.5472 1.9456 14.5408 5.9392 0.1024 0.1024 0.3072 0.3072 0.4096 0.512l72.2944 77.4144c7.9872 7.9872 7.9872 20.992 0 28.9792-7.9872 7.9872-20.992 7.9872-28.9792 0l-58.2656-63.3856-33.5872 25.2928c-7.9872 7.9872-20.992 7.9872-28.9792 0-7.9872-7.9872-7.9872-20.992 0-28.9792l47.5136-39.3216 0.512-0.512zM259.3792 715.7760000000001c-46.2848 0-83.968-37.6832-83.968-83.968s37.6832-83.968 83.968-83.968 83.968 37.6832 83.968 83.968c0.1024 46.2848-37.5808 83.968-83.968 83.968z m0-126.976c-23.7568 0-43.008 19.3536-43.008 43.008s19.3536 43.008 43.008 43.008 43.008-19.3536 43.008-43.008-19.2512-43.008-43.008-43.008zM259.3792 220.15999999999997c-46.2848 0-83.968-37.6832-83.968-83.968s37.6832-83.968 83.968-83.968 83.968 37.6832 83.968 83.968-37.5808 83.968-83.968 83.968z m0-126.976c-23.7568 0-43.008 19.3536-43.008 43.008s19.3536 43.008 43.008 43.008 43.008-19.3536 43.008-43.008-19.2512-43.008-43.008-43.008zM414.8224 611.328h437.0432c11.264 0 20.48 9.216 20.48 20.48s-9.216 20.48-20.48 20.48H414.8224c-11.264 0-20.48-9.216-20.48-20.48s9.216-20.48 20.48-20.48zM851.8656 404.48H414.8224c-11.264 0-20.48-9.216-20.48-20.48s9.216-20.48 20.48-20.48h437.0432c11.264 0 20.48 9.216 20.48 20.48s-9.216 20.48-20.48 20.48zM851.8656 156.67200000000003H414.8224c-11.264 0-20.48-9.216-20.48-20.48s9.216-20.48 20.48-20.48h437.0432c11.264 0 20.48 9.216 20.48 20.48s-9.216 20.48-20.48 20.48z"  horiz-adv-x="1024" />

    
    <glyph glyph-name="huodong" unicode="&#44425;" d="M788.48 266.581333c0 17.066667-5.802667 31.744-17.749333 44.714667L421.205333 660.1386669999999c-12.288 12.288-29.354667 22.869333-49.834667 31.744-21.162667 8.874667-39.936 12.970667-57.002667 12.970667L110.933333 704.853333c-17.066667 0-31.744-6.485333-44.032-18.773333-12.288-12.288-18.773333-26.965333-18.773333-44.032l0-202.752c0-17.066667 4.096-36.522667 12.970667-57.002667 8.874667-21.162667 18.773333-37.546667 31.744-49.834667l349.525333-349.525333c12.288-12.288 26.965333-17.749333 44.032-17.749333 17.066667 0 31.744 5.802667 44.714667 17.749333l239.616 239.616C781.994667 234.83733299999994 788.48 249.51466700000003 788.48 266.581333L788.48 266.581333 788.48 266.581333zM248.490667 503.808c-12.288-12.288-26.965333-18.090667-44.032-18.090667-17.066667 0-31.744 5.802667-44.032 18.090667-12.288 12.288-18.090667 26.965333-18.090667 44.032 0 17.066667 5.802667 31.744 18.090667 44.032 12.288 12.288 26.965333 18.090667 44.032 18.090667 17.066667 0 31.744-5.802667 44.032-18.090667C260.778667 579.5840000000001 266.24 564.906667 266.24 547.8399999999999 267.264 530.432 260.778667 516.096 248.490667 503.808L248.490667 503.808 248.490667 503.808zM958.122667 311.637333L608.597333 660.1386669999999c-12.288 12.288-29.354667 22.869333-49.834667 31.744C537.6 700.757333 518.826667 704.853333 501.76 704.853333l-109.909333 0c17.066667 0 36.522667-4.096 57.002667-12.970667 21.162667-8.874667 37.546667-18.773333 49.834667-31.744l349.525333-348.501333c12.288-12.970667 18.090667-27.648 18.090667-44.714667s-5.802667-31.744-18.090667-44.032l-229.034667-229.717333c9.898667-9.898667 18.773333-17.066667 25.941333-21.845333 7.168-4.778667 17.066667-6.485333 28.672-6.485333 17.066667 0 31.744 5.802667 44.714667 18.090667l239.616 240.298667c12.288 12.288 17.749333 26.965333 17.749333 44.032S970.069333 298.325333 958.122667 311.637333L958.122667 311.637333 958.122667 311.637333zM958.122667 311.637333"  horiz-adv-x="1024" />

    
    <glyph glyph-name="zengpin" unicode="&#61401;" d="M85.930667-54.01599999999996c0-24.576 7.125333-31.317333 29.44-31.317333l353.365333 0L468.736 384.256 85.930667 384.256 85.930667-54.01599999999996zM555.264-85.33333300000004l353.365333 0c22.357333 0 29.44 6.698667 29.44 31.317333L938.069333 384.256l-382.848 0L555.221333-85.33333300000004zM938.666667 640l-213.333333 0c51.498667 11.733333 105.898667 49.706667 112.597333 94.293333 7.850667 50.858667-52.565333 127.957333-125.653333 118.186667-87.424-12.117333-151.509333-89.258667-196.736-149.077333C470.656 762.069333 412.16 830.592 328.362667 850.517333c-81.152 19.2-136.746667-64.938667-135.253333-116.992C194.56 689.28 245.717333 651.690667 298.666667 640L85.333333 640C58.965333 640 42.666667 625.152 42.666667 597.333333l0-170.581333L469.333333 426.666667 469.333333 640l85.333333 0 0-213.333333 426.666667 0.085333L981.333333 597.333333C981.333333 625.152 964.992 640 938.666667 640zM251.648 717.8240000000001C236.885333 734.250667 246.869333 756.565333 256.128 773.418667c17.024 29.696 40.746667 47.744 81.152 30.933333 56.32-23.509333 97.792-73.216 131.584-117.802667C397.312 678.656 290.56 675.5840000000001 251.648 717.8240000000001zM562.944 687.317333c34.816 44.629333 75.221333 89.941333 131.157333 117.802667 58.581333 28.970667 113.024-49.322667 85.205333-86.912-21.418667-28.544-89.258667-31.232-125.909333-32.853333C623.317333 683.818667 592.896 684.544 562.944 687.317333z"  horiz-adv-x="1024" />

    
    <glyph glyph-name="jibenxinxi" unicode="&#59004;" d="M512 823.5c-22.3 0-44.6-4.2-61.6-12.7l-359-179.5c-33.9-17-33.9-44.6 0-61.6l359-179.5c17-8.5 39.3-12.7 61.7-12.7 22.3 0 44.6 4.2 61.6 12.7l359.1 179.5c33.9 17 33.9 44.6 0 61.6L573.6 810.8c-17 8.5-39.3 12.7-61.6 12.7z m0-665.4c-27.5 0-55 5.5-77 16.5L83.2 350.4c-17 8.5-23.9 29.2-15.4 46.3 8.5 17 29.2 23.9 46.3 15.4l351.7-175.9c24.2-12.1 68.2-12.1 92.5 0L910 412c17 8.5 37.7 1.6 46.2-15.4s1.6-37.7-15.4-46.2L589 174.60000000000002c-24.1-11.3-50.4-16.9-77-16.5z m0-213.6c-27.5 0-55 5.5-77 16.5L83.3 136.89999999999998c-17 8.5-23.9 29.2-15.4 46.2 8.5 17 29.2 23.9 46.2 15.4l351.7-175.9c24.2-12.1 68.2-12.1 92.5 0L910 198.5c17 8.5 37.7 1.6 46.2-15.4s1.6-37.7-15.4-46.2L589-39c-21.9-11-49.4-16.5-77-16.5z"  horiz-adv-x="1024" />

    
    <glyph glyph-name="cha2-copy" unicode="&#59893;" d="M512 444.330667l211.2 211.2 60.330667-60.330667-211.2-211.2 211.2-211.2-60.330667-60.330667-211.2 211.2-211.2-211.2-60.330667 60.330667 211.2 211.2-211.2 211.2L300.8 655.530667z"  horiz-adv-x="1024" />

    
    <glyph glyph-name="xing1" unicode="&#58947;" d="M939.386 490.975l-289.237 40.678L519.605 792.9300000000001c-3.704 7.414-14.302 7.362-17.934-0.087L373.649 530.254 84.792 486.958c-8.198-1.229-11.427-11.325-5.464-17.083L289.45 266.95399999999995l-48.065-288.107c-1.364-8.177 7.241-14.367 14.56-10.474L513.85 105.55399999999997l259.216-134.751c7.355-3.823 15.901 2.448 14.46 10.611l-50.777 287.64 208.257 204.891c5.909 5.812 2.588 15.876-5.62 17.03z"  horiz-adv-x="1024" />

    
    <glyph glyph-name="zhuantiao" unicode="&#58937;" d="M617.33 740.163l0.61-0.594 301.688-301.52c12.371-12.365 12.495-32.335 0.37-44.852l-0.37-0.377-301.689-301.522c-19.956-19.946-53.937-6.16-54.615 21.763l-0.01 0.85V294.163a355.23 355.23 0 0 1-53.331 4.008c-157.838 0-295.126-104.759-338.232-254.056-8.898-30.819-52.59-30.819-61.488 0C99.513 81.34699999999998 94 120.11400000000003 94 159.58500000000004 94 389.198 280.243 575.3399999999999 509.983 575.3399999999999c17.943 0 35.746-1.138 53.332-3.389V716.955c0 27.925 33.108 42.187 53.404 23.776l0.611-0.568z m9.981-100.417l0.001-105.235a32.036 32.036 0 0 0-0.794-7.74c-3.91-17.225-21.052-28.02-38.287-24.11-25.46 5.774-51.65 8.716-78.248 8.716-190.507 0-345.667-151.267-351.797-340.18l-0.07-2.873 1.01 1.602c73.694 115.396 202.015 190.269 345.268 192.17l5.589 0.037c31.364 0 62.304-3.477 92.408-10.302 14.916-3.381 25.014-16.668 24.927-31.349l-0.006-0.53v-128.83l224.435 224.312-224.436 224.312z"  horiz-adv-x="1024" />

    
    <glyph glyph-name="xuanze1" unicode="&#58979;" d="M512 896C230.4 896 0 665.6 0 384s230.4-512 512-512 512 230.4 512 512S793.6 896 512 896z m353.28-389.12l-414.72-424.96c-5.12-5.12-15.36-10.24-25.6-10.24s-20.48 5.12-25.6 10.24l-235.52 209.92c-15.36 15.36-15.36 40.96-5.12 56.32 15.36 15.36 40.96 15.36 56.32 5.12l204.8-189.44 389.12 399.36c15.36 15.36 40.96 15.36 56.32 0 15.36-15.36 15.36-40.96 0-56.32z"  horiz-adv-x="1024" />

    
    <glyph glyph-name="sanjiaoxingzuo" unicode="&#58934;" d="M704 591.8v-415.6c0-37.4-30.7-64.1-64.1-64.1-10.8 0-22 2.8-32.4 9l-352 207.8c-41.9 24.8-41.9 85.5 0 110.2l351.9 207.8c10.5 6.2 21.6 9 32.4 9 33.5 0 64.2-26.7 64.2-64.1z"  horiz-adv-x="1024" />

    
    <glyph glyph-name="sanjiaoxingyou" unicode="&#58933;" d="M768.5 328.9l-352-207.8c-10.4-6.2-21.6-9-32.4-9-33.4 0-64.1 26.7-64.1 64.1V591.8c0 37.4 30.7 64.1 64.1 64.1 10.8 0 22-2.8 32.4-9l351.9-207.8c42-24.8 42-85.4 0.1-110.2z"  horiz-adv-x="1024" />

    
    <glyph glyph-name="loudou" unicode="&#59056;" d="M812.525 801H207.472C175.732 801 150 775.271 150 743.533l0.012-1.151a57.463 57.463 0 0 1 11.911-33.893L404.1 393.784l0.001-276.645a80.452 80.452 0 0 1 42.561-70.969l106.78-57.013c21.28-11.362 47.742-3.323 59.105 17.954l0.52 1.006a43.671 43.671 0 0 1 4.629 19.566V395.007l240.438 313.56c19.313 25.187 14.55 61.26-10.64 80.571A57.476 57.476 0 0 1 812.524 801zM212.14 741.237h595.725l-249.94-325.96v-360.76l-83.108 44.373a20.688 20.688 0 0 0-10.945 18.25V414.114L212.14 741.237z"  horiz-adv-x="1024" />

    
    <glyph glyph-name="danchuangduoxuan-shanchu" unicode="&#58910;" d="M879.179 650.582h-734.359c-20.119 0-30.179 10.06-30.179 30.179 0 10.06 10.06 30.179 30.179 30.179h734.359c10.06 0 30.179-20.119 30.179-30.179 0-20.119-20.119-30.179-30.179-30.179zM607.567 771.299h-191.135c-20.119 0-30.179 20.119-30.179 30.179 0 20.119 10.06 30.179 30.179 30.179h191.135c10.06 0 30.179-10.06 30.179-30.179 0-10.06-20.119-30.179-30.179-30.179zM195.119 590.2239999999999c20.119 0 30.179-10.06 30.179-20.119v-523.104c0-30.179 30.179-60.358 60.358-60.358h90.537v583.462c0 10.06 10.06 20.119 30.179 20.119 10.06 0 30.179-10.06 30.179-20.119v-583.462h150.896v583.462c0 10.06 10.06 20.119 30.179 20.119s30.179-10.06 30.179-20.119v-583.462h90.537c30.179 0 50.299 30.179 50.299 60.358v523.104c0 10.06 20.119 20.119 30.179 20.119 20.119 0 30.179-10.06 30.179-20.119v-523.104c0-60.358-50.299-110.657-110.657-110.657h-452.687c-60.358 0-110.657 50.299-110.657 110.657v523.104c0 10.06 10.06 20.119 20.119 20.119z"  horiz-adv-x="1024" />

    
    <glyph glyph-name="icon-danchuangduoxuan-qingchu" unicode="&#58909;" d="M1024-128H26.25641a26.25641 26.25641 0 1 0 0 52.512821h997.74359a26.25641 26.25641 0 0 0 0-52.512821zM630.153846 8.53333299999997l-21.005128-31.507692H262.564103l-180.434052 155.017846L36.758974 166.07179499999995l31.507693 42.010256L503.020308 883.922051l36.023795 8.086975L966.235897 607.179487l45.42359-30.299897-30.877538-42.482872zM532.795077 832.984615l-422.203077-656.410256L262.564103 28.225640999999996V29.53846199999998h318.542769l355.98441 534.002871zM525.128205 869.74359l472.615385-262.564103-210.051282-315.076923-472.615385 262.564103z"  horiz-adv-x="1050" />

    
    <glyph glyph-name="icon-danchuangduoxuan-baocun" unicode="&#58908;" d="M834.909427-40.394727999999986L189.089629-40.394727999999986c-50.782593 0-92.097558 41.314964-92.097558 92.097558L96.992071 718.21695c0 50.782593 41.314964 92.097558 92.097558 92.097558l645.819798 0c50.782593 0 92.097558-41.314964 92.097558-92.097558l0-666.513096C927.006985 0.9202370000000428 885.692021-40.394727999999986 834.909427-40.394727999999986zM189.089629 748.916136c-16.927531 0-30.699186-13.771655-30.699186-30.699186l0-666.513096c0-16.927531 13.771655-30.699186 30.699186-30.699186l645.819798 0c16.927531 0 30.699186 13.771655 30.699186 30.699186L865.608613 718.21695c0 16.927531-13.771655 30.699186-30.699186 30.699186L189.089629 748.916136zM763.846952 435.442655L260.152105 435.442655 260.152105 757.784107 290.851291 757.784107 290.851291 466.141841 733.147766 466.141841 733.147766 757.784107 763.846952 757.784107ZM675.160073 512.190619l-89.822748 0 0 153.49593 89.822748 0L675.160073 512.190619zM616.036511 542.889805l28.424376 0 0 92.097558-28.424376 0L616.036511 542.889805z"  horiz-adv-x="1024" />

    
    <glyph glyph-name="danchuangduoxuan-zhankai" unicode="&#58906;" d="M819.2 768H204.8C148.48 768 102.4 721.92 102.4 665.6v-614.4c0-56.32 46.08-102.4 102.4-102.4h614.4c56.32 0 102.4 46.08 102.4 102.4V665.6c0 56.32-46.08 102.4-102.4 102.4z m51.2-716.8c0-28.16-23.04-51.2-51.2-51.2H204.8c-28.16 0-51.2 23.04-51.2 51.2V665.6c0 28.16 23.04 51.2 51.2 51.2h614.4c28.16 0 51.2-23.04 51.2-51.2v-614.4z m-409.6 51.2h-168.96l174.08 174.08-35.84 35.84-174.08-174.08V307.20000000000005c0 15.36-10.24 25.6-25.6 25.6s-25.6-10.24-25.6-25.6v-230.4c0-7.68 2.56-12.8 7.68-17.92 5.12-5.12 12.8-7.68 17.92-7.68h230.4c15.36 0 25.6 10.24 25.6 25.6 0 12.8-10.24 25.6-25.6 25.6zM793.6 665.6h-230.4c-15.36 0-25.6-10.24-25.6-25.6s10.24-25.6 25.6-25.6h168.96l-174.08-174.08 35.84-35.84 174.08 174.08V409.6c0-15.36 10.24-25.6 25.6-25.6s25.6 10.24 25.6 25.6v230.4c0 7.68-2.56 12.8-7.68 17.92-5.12 5.12-10.24 7.68-17.92 7.68z"  horiz-adv-x="1024" />

    
    <glyph glyph-name="xiaocha" unicode="&#58904;" d="M240.896 655.104a21.333333 21.333333 0 0 0 27.221333 2.432l2.986667-2.432 512-512a21.333333 21.333333 0 0 0-27.221333-32.64l-2.986667 2.432-512 512a21.333333 21.333333 0 0 0 0 30.208zM752.896 655.104a21.333333 21.333333 0 0 0 32.64-27.221333l-2.432-2.986667-512-512a21.333333 21.333333 0 0 0-32.64 27.221333l2.432 2.986667 512 512z"  horiz-adv-x="1024" />

    
    <glyph glyph-name="rilijiantouzuodan" unicode="&#58900;" d="M626.036364 72.14545499999997L314.181818 384 626.036364 695.854545l25.6-23.272727L363.054545 384 651.636364 95.418182z"  horiz-adv-x="1024" />

    
    <glyph glyph-name="rilijiantouyoudan" unicode="&#58899;" d="M377.018182 93.09090900000001c-6.981818 0-11.636364 2.327273-16.290909 6.981818-9.309091 9.309091-9.309091 23.272727 0 32.581818L612.072727 384 360.727273 635.345455c-9.309091 9.309091-9.309091 23.272727 0 32.581818s23.272727 9.309091 32.581818 0l267.636364-267.636364c9.309091-9.309091 9.309091-23.272727 0-32.581818L395.636364 100.07272699999999c-4.654545-4.654545-11.636364-6.981818-18.618182-6.981818z"  horiz-adv-x="1024" />

    
    <glyph glyph-name="youjiantou" unicode="&#58897;" d="M384 12.919999999999959c-8.19 0-16.38 3.12-22.62 9.38-12.5 12.5-12.5 32.75 0 45.25L677.83 384 361.38 700.45c-12.5 12.5-12.5 32.75 0 45.25s32.75 12.5 45.25 0L734.4 417.93c18.72-18.72 18.72-49.16 0-67.88L406.62 22.299999999999955c-6.24-6.25-14.43-9.38-22.62-9.38z m305.14 359.77h0.31-0.31z"  horiz-adv-x="1024" />

    
    <glyph glyph-name="zuojiantou" unicode="&#58896;" d="M677.391515 22.083231999999953c-7.86101 0-15.618586 2.999596-21.617778 8.895354L324.473535 362.27878799999996c-11.998384 11.894949-11.998384 31.340606 0 43.235555L655.670303 736.711111c5.999192 5.999192 13.756768 8.895354 21.617778 8.895354 7.757576 0 15.618586-2.999596 21.617778-8.895354 11.894949-11.894949 11.894949-31.237172 0-43.235555L389.223434 383.896566 698.905859 74.21414100000004c11.894949-11.998384 11.894949-31.340606 0-43.235555-5.895758-5.895758-13.756768-8.895354-21.514344-8.895354z m0 0"  horiz-adv-x="1024" />

    
    <glyph glyph-name="cha3" unicode="&#58887;" d="M86.016 896l-83.968-70.656c149.504-111.616 288.768-239.616 411.136-367.616-187.392-188.928-334.336-374.784-411.648-449.536l159.744-133.632c56.832 117.248 180.224 294.912 345.6 481.28 165.376-187.392 289.28-366.08 346.112-483.84 0 0 155.648 165.376 169.472 139.776C962.56 79.36000000000001 816.128 275.96799999999996 619.52 477.184c112.64 115.712 239.104 230.4 374.272 331.264l-36.864 68.608c-153.088-76.288-299.008-189.44-430.08-309.76-132.096 125.44-281.6 244.736-440.832 328.704z"  horiz-adv-x="1024" />

    
    <glyph glyph-name="sousou" unicode="&#58901;" d="M889.6 57.60000000000002l-192 192C742.4 300.79999999999995 768 371.20000000000005 768 448c0 179.2-140.8 320-320 320S128 627.2 128 448s140.8-320 320-320c76.8 0 147.2 25.6 198.4 70.4l192-192c12.8-12.8 32-12.8 44.8 0C896 19.200000000000045 896 44.799999999999955 889.6 57.60000000000002zM192 448c0 140.8 115.2 256 256 256s256-115.2 256-256c0-140.8-115.2-256-256-256S192 307.20000000000005 192 448z"  horiz-adv-x="1024" />

    
    <glyph glyph-name="cha2" unicode="&#58936;" d="M927.070965 719.375c14.665-14.665 14.665-38.37 0-53.03L308.350965 47.625c-14.66-14.665-38.365-14.665-53.03 0s-14.665 38.37 0 53.03L874.040965 719.375c14.66 14.665 38.365 14.665 53.03 0zM255.320965 719.375c-14.665-14.665-14.665-38.37 0-53.03l618.72-618.72c14.66-14.665 38.365-14.665 53.03 0s14.665 38.37 0 53.03L308.350965 719.375c-14.66 14.665-38.365 14.665-53.03 0z"  horiz-adv-x="1510" />

    
    <glyph glyph-name="sanjiaoxing" unicode="&#58902;" d="M512 213.33333300000004l298.666667 298.666667H213.333333z"  horiz-adv-x="1024" />

    
    <glyph glyph-name="tishi1" unicode="&#58944;" d="M512 896C229.229 896 0 666.77 0 384s229.229-512 512-512c282.77 0 512 229.23 512 512S794.77 896 512 896z m0-943.582C273.644-47.581999999999994 80.418 145.64499999999998 80.418 384 80.418 622.356 273.644 815.582 512 815.582c238.355 0 431.582-193.226 431.582-431.582 0-238.355-193.227-431.582-431.582-431.582zM511.875 267.828c6.719 19.828 16.203 48.406 28.469 85.734 12.25 37.328 22.25 68.859 29.969 94.578s11.594 42.453 11.594 50.188c0 13.109-6.891 19.672-20.656 19.672-15.781 0-39.141-10.781-70.047-32.344s-64.359-50.875-100.328-87.938L409.547 377l13.609 13.625c8.406 9.75 18.484 18.922 30.266 27.5C465.188 426.703 473.594 431 478.641 431c7.063 0 10.594-4.203 10.594-12.609 0-2.359-9.25-31.781-27.75-88.281s-28.922-88.625-31.266-96.344l-37.328-104.422c-9.75-30.281-14.625-51.969-14.625-65.078 0-8.75 2.859-15.969 8.578-21.688S399.109 34 406.516 34c18.484 0 44.703 11.719 78.641 35.141s66.188 49.797 96.75 79.125L562.313 170c-1.344-1.016-3.703-2.781-7.047-5.297-3.344-2.531-5.859-4.297-7.531-5.297C514.438 130.46900000000005 491.406 116 478.641 116c-6.734 0-10.094 4.203-10.094 12.609 0 6.719 5.031 25.891 15.109 57.5 10.078 31.594 19.485 58.844 28.219 81.719zM603.516 734c-10.719 0-20.438-3.453-29.141-10.344-8.719-6.891-15.5-15.297-20.359-25.219s-7.281-20.422-7.281-31.516c0-12.781 4.016-24.297 12.063-34.547 8.031-10.25 17.75-15.375 29.141-15.375 15.078 0 28.484 7.563 40.203 22.688s17.594 31.438 17.594 48.922c0 12.781-4.188 23.531-12.563 32.281-8.376 8.735-18.267 13.11-29.657 13.11z"  horiz-adv-x="1024" />

    
    <glyph glyph-name="shanchuguanbicha2" unicode="&#59403;" d="M544 832C279.04 832 64 616.96 64 352S279.04-128 544-128c264.96 0 480 215.04 480 480S808.96 832 544 832zM759.04 137.60000000000002c-12.8-12.8-33.28-12.8-45.44 0L542.08 310.4l-174.08-172.16c-12.8-12.8-33.28-12.8-46.08 0-12.8 12.8-12.8 33.28 0 45.44l174.72 172.8L331.52 521.6c-12.8 12.8-12.8 33.28 0 45.44 12.8 12.8 33.28 12.8 45.44 0l165.12-165.76 167.68 165.76c12.8 12.8 33.28 12.8 46.08 0 12.8-12.8 12.8-33.28 0-45.44l-168.32-166.4 170.88-172.16C771.2 170.88 771.2 150.39999999999998 759.04 137.60000000000002z"  horiz-adv-x="1024" />

    
    <glyph glyph-name="jifen" unicode="&#58963;" d="M509.091764 394.346649c241.775532 0 424.086741 78.085426 424.086741 181.63992 0 103.543238-182.311209 181.628664-424.086741 181.628664S84.993766 679.528783 84.993766 575.985546C84.993766 472.431052 267.316232 394.346649 509.091764 394.346649zM509.091764 711.779302c222.908836 0 378.251833-71.561849 378.251833-135.793756S732.001623 440.181557 509.091764 440.181557c-222.920092 0-378.26309 71.573105-378.26309 135.803989S286.171672 711.779302 509.091764 711.779302zM509.083577 201.93847800000003c241.1155 0 422.937568 77.598332 422.937568 180.482561 0 27.169803-13.127995 52.453652-36.241412 75.131141-0.148379 0.153496-0.26606 0.320295-0.418532 0.468674-0.170892 0.166799-0.285502 0.345877-0.456395 0.51063l-0.11461-0.125867c-3.717671 3.40761-8.576329 5.608741-14.017248 5.608741-11.542894 0-20.898982-9.356089-20.898982-20.898982 0-6.110161 2.721994-11.481496 6.901177-15.302521l-0.082888-0.091074c13.948687-14.024411 21.809725-31.154557 21.809725-45.300742 0-64.785515-155.813718-136.966465-379.419426-136.966465-223.595474 0-379.410216 72.180949-379.410216 136.966465 0 16.139585 4.53734 29.952172 22.323425 45.670156 0.213871 0.204661 0.429789 0.381693 0.635473 0.594541 0.137123 0.118704 0.240477 0.233314 0.378623 0.354064l-0.084934 0.080841c3.416819 3.719718 5.623068 8.588609 5.623068 14.037714 0 11.542894-9.356089 20.898982-20.898982 20.898982-5.770424 0-10.993378-2.340301-14.773472-6.119371l-0.122797 0.118704c-23.408129-22.797215-36.594453-48.27754-36.594453-75.635631C86.158289 279.537833 267.979334 201.93847800000003 509.083577 201.93847800000003zM895.577119 266.47021299999994c-0.168846 0.164752-0.282433 0.342808-0.453325 0.50756l-0.11461-0.124843c-3.717671 3.40761-8.577353 5.608741-14.018272 5.608741-11.540847 0-20.897959-9.356089-20.897959-20.898982 0-6.110161 2.720971-11.482519 6.901177-15.302521l-0.083911-0.091074c13.94971-14.024411 21.810748-31.154557 21.810748-45.300742 0-64.787562-155.813718-136.966465-379.419426-136.966465-223.595474 0-379.410216 72.179926-379.410216 136.966465 0 16.139585 4.53734 29.952172 22.321378 45.670156 0.213871 0.202615 0.429789 0.381693 0.635473 0.594541 0.137123 0.118704 0.240477 0.233314 0.378623 0.354064l-0.084934 0.080841c3.416819 3.719718 5.623068 8.588609 5.623068 14.037714 0 11.542894-9.356089 20.898982-20.897959 20.898982-5.770424 0-10.993378-2.340301-14.773472-6.119371l-0.122797 0.118704c-23.410176-22.797215-36.594453-48.278563-36.594453-75.635631 0-102.884228 181.821045-180.482561 422.926312-180.482561 241.114476 0 422.935522 77.598332 422.935522 180.482561 0 27.166733-13.125949 52.452629-36.235272 75.127048C895.851365 266.15298800000005 895.730615 266.318764 895.577119 266.47021299999994z"  horiz-adv-x="1024" />

    
    <glyph glyph-name="fujian" unicode="&#58953;" d="M724.818 817.347c85.013-50.646 113.954-160.982 63.308-245.999l-228.815-386.175c-33.462-56.978-106.72-75.969-163.696-42.507-56.978 33.462-75.969 106.72-42.507 163.696l182.689 309.307c8.139 14.468 27.129 18.99 40.698 10.851 14.471-8.139 18.993-27.133 10.851-40.698l-182.685-309.307c-17.184-28.035-7.232-65.115 20.802-82.298 28.035-17.184 65.115-7.238 82.298 20.802l228.815 386.175c33.462 56.978 14.471 130.233-42.508 163.696-56.975 33.462-130.234 14.473-163.696-42.508l-274.034-463.959c-50.646-85.01-21.706-195.347 63.308-245.994s195.35-21.706 245.999 63.308l228.811 386.175c8.139 14.473 27.133 18.994 40.701 10.855 14.469-8.142 18.991-27.133 10.851-40.701l-228.815-386.178c-66.925-113.954-214.341-151.94-328.297-84.11-113.954 66.925-151.94 214.341-84.11 328.297l274.033 463.957c49.742 85.015 160.079 113.05 245.999 63.31v0 0zM724.818 817.347z"  horiz-adv-x="1024" />

    
    <glyph glyph-name="right-copy" unicode="&#58918;" d="M511.9455-62.71280899999999c-247.065724 0-448.054313 200.987589-448.054313 448.060313 0 247.065724 200.987589 448.054313 448.054313 448.054313 247.072724 0 448.060313-200.987589 448.060313-448.054313C960.005813 138.27578000000005 759.017224-62.71280899999999 511.9455-62.71280899999999L511.9455-62.71280899999999zM511.9455 769.106628c-211.60762 0-383.758124-172.150504-383.758124-383.758124 0-211.58062 172.150504-383.765124 383.758124-383.765124 211.58062 0 383.765124 172.184504 383.765124 383.765124C895.709624 596.956124 723.52512 769.106628 511.9455 769.106628L511.9455 769.106628zM511.9455 769.106628M726.94813 504.174852c-12.545037 12.448036-32.837096 12.322036-45.249133-0.254001L448.388314 268.05215999999996l-103.280303 106.122311c-12.350036 12.707037-32.612096 12.932038-45.249133 0.640002-12.678037-12.322036-12.965038-32.612096-0.640002-45.251133l126.032369-129.522379c0.064-0.093 0.190001-0.093 0.254001-0.190001 0.064-0.064 0.097-0.191001 0.161-0.254001 2.017006-1.988006 4.512013-3.204009 6.88102-4.547013 1.250004-0.674002 2.241007-1.793005 3.52001-2.305007 3.873011-1.601005 8.000023-2.398007 12.096035-2.398007 4.063012 0 8.131024 0.796002 11.969035 2.334007 1.250004 0.513002 2.208006 1.539005 3.39401 2.178006 2.398007 1.344004 4.898014 2.525007 6.94502 4.542013 0.063 0.064 0.098 0.196001 0.190001 0.259001 0.064 0.094 0.161 0.128 0.259001 0.191001l256.253751 259.041759C739.626167 471.500756 739.494166 491.757816 726.94813 504.174852L726.94813 504.174852zM726.94813 504.174852"  horiz-adv-x="1025" />

    
    <glyph glyph-name="cha" unicode="&#59060;" d="M511.998977-65.61004400000002c-248.306272 0-449.607998 201.307865-449.607998 449.614138S263.692704 833.610044 511.998977 833.610044c248.364601 0 449.610044-201.299679 449.610044-449.606974S760.363577-65.61004400000002 511.998977-65.61004400000002L511.998977-65.61004400000002zM718.186989 515.078361c8.457626 8.462742 8.457626 22.202675 0 30.658254l-45.927005 45.871747c-8.459672 8.459672-22.138206 8.459672-30.599925 0L511.603981 461.55126 381.546879 591.6083619999999c-8.459672 8.459672-22.1423 8.459672-30.599925 0l-45.927005-45.871747c-8.457626-8.455579-8.457626-22.195511 0-30.658254l130.057101-130.053008L305.019948 254.968252c-8.457626-8.455579-8.457626-22.140253 0-30.599925L350.946954 178.444391c8.457626-8.404414 22.140253-8.404414 30.599925 0l130.057101 130.057101L641.661082 178.444391c8.461719-8.404414 22.140253-8.404414 30.599925 0l45.927005 45.922912c8.457626 8.459672 8.457626 22.144346 0 30.599925L588.129888 385.02433 718.186989 515.078361 718.186989 515.078361z"  horiz-adv-x="1024" />

    
    <glyph glyph-name="shangchuan" unicode="&#58981;" d="M754.4 131.39999999999998h-41.6c-11 0-20 9-20 20s9 20 20 20h19.4v0.2l21.2-0.2h0.9c121.2 0 219.8 98.6 219.8 219.8S875.5 611 754.3 611h-1.7l-15.3-0.1-4.1 14.7C704.2 729.5 608.5 802 500.5 802c-123.4 0-226.7-92.4-240.2-214.8l-1.9-17.3-17.4-0.5c-108.1-3.4-192.7-90.8-192.7-199 0-108.8 89-198.1 198.4-199h65.5c11 0 20-9 20-20s-9-20-20-20h-66.7c-63.2 0.7-122.5 25.8-167.3 70.6C33.1 247.20000000000005 8.3 307 8.3 370.4c0 62.5 24 121.7 67.6 166.5 39.5 40.7 91.2 65.6 147.1 71.3 10.7 62 41.9 118.8 89.1 161.4C363.8 816.3 430.8 842 500.5 842c62.7 0 122-20.2 171.6-58.3 44-33.9 77.4-80.6 95.2-132.9 64.5-3.1 124.8-29.8 170.8-75.8 49.1-49.1 76.1-114.3 76.1-183.7s-27-134.7-76.1-183.7C893.3 162.70000000000005 835 136.29999999999995 772.3 132v-0.6h-17.9zM491.3 431.8h40v-360h-40zM497.2 474.1l-99-99c-7.8-7.8-7.8-20.5 0-28.3 7.8-7.8 20.5-7.8 28.3 0l99 99c7.8 7.8 7.8 20.5 0 28.3-7.9 7.9-20.5 7.9-28.3 0zM596.1 346.9l-99 99c-7.8 7.8-7.8 20.5 0 28.3 7.8 7.8 20.5 7.8 28.3 0l99-99c7.8-7.8 7.8-20.5 0-28.3-7.8-7.8-20.5-7.8-28.3 0z"  horiz-adv-x="1024" />

    
    <glyph glyph-name="rilijiantouyoushuang" unicode="&#58886;" d="M151.472 691.6320000000001A34.128 34.128 0 1 0 199.68 739.84l331.952-331.952c13.28-13.312 13.28-34.88 0-48.208L199.68 28.159999999999968a34.128 34.128 0 1 0-48.208 48.208L459.088 384 151.472 691.6320000000001z m341.328 0a34.128 34.128 0 0 0 48.208 48.208L872.96 407.888c13.28-13.312 13.28-34.88 0-48.208L541.008 27.727999999999952a34.128 34.128 0 0 0-48.208 48.224L800.432 384 492.8 691.6320000000001z"  horiz-adv-x="1024" />

    
    <glyph glyph-name="moban" unicode="&#58935;" d="M518.826667 855.04C263.964444 855.04 54.613333 645.688889 54.613333 390.826667s209.351111-464.213333 464.213334-464.213334 464.213333 209.351111 464.213333 464.213334S773.688889 855.04 518.826667 855.04z m0-892.017778C282.168889-36.977777999999944 91.022222 154.16888900000004 91.022222 390.826667S282.168889 818.631111 518.826667 818.631111s427.804444-191.146667 427.804444-427.804444S755.484444-36.977777999999944 518.826667-36.977777999999944zM757.76 547.8399999999999h-102.4v104.675556c0 9.102222-6.826667 15.928889-15.928889 15.928888H300.373333c-9.102222 0-15.928889-6.826667-15.928889-15.928888V213.33333300000004c0-9.102222 6.826667-15.928889 15.928889-15.928889h102.4v-104.675555c0-9.102222 6.826667-15.928889 15.928889-15.928889h339.057778c9.102222 0 15.928889 6.826667 15.928889 15.928889V531.911111c-2.275556 9.102222-9.102222 15.928889-15.928889 15.928889z m-354.986667-15.928889v-34.133333h-27.306666c-6.826667 0-11.377778-4.551111-11.377778-11.377778v-2.275556c0-6.826667 4.551111-11.377778 11.377778-11.377777h27.306666v-72.817778h-29.582222c-6.826667 0-11.377778-4.551111-11.377778-11.377778v-2.275555c0-6.826667 4.551111-11.377778 11.377778-11.377778h29.582222v-68.266667h-27.306666c-6.826667 0-11.377778-4.551111-11.377778-11.377778v-2.275555c0-6.826667 4.551111-11.377778 11.377778-11.377778h27.306666v-70.542222H295.822222V657.066667h343.608889v-109.226667h-223.004444c-6.826667 0-13.653333-6.826667-13.653334-15.928889z m354.986667-441.457778H414.151111V536.462222h343.608889v-446.008889zM493.795556 445.44h186.595555c6.826667 0 11.377778 4.551111 11.377778 11.377778v2.275555c0 6.826667-4.551111 11.377778-11.377778 11.377778h-186.595555c-6.826667 0-11.377778-4.551111-11.377778-11.377778v-2.275555c0-4.551111 4.551111-11.377778 11.377778-11.377778zM493.795556 352.14222199999995h186.595555c6.826667 0 11.377778 4.551111 11.377778 11.377778v2.275556c0 6.826667-4.551111 11.377778-11.377778 11.377777h-186.595555c-6.826667 0-11.377778-4.551111-11.377778-11.377777v-2.275556c0-4.551111 4.551111-11.377778 11.377778-11.377778zM493.795556 254.29333299999996h186.595555c6.826667 0 11.377778 4.551111 11.377778 11.377778v2.275556c0 6.826667-4.551111 11.377778-11.377778 11.377777h-186.595555c-6.826667 0-11.377778-4.551111-11.377778-11.377777v-2.275556c-2.275556-4.551111 4.551111-11.377778 11.377778-11.377778zM680.391111 186.02666699999997h-186.595555c-6.826667 0-11.377778-4.551111-11.377778-11.377778v-2.275556c0-6.826667 4.551111-11.377778 11.377778-11.377777h186.595555c6.826667 0 11.377778 4.551111 11.377778 11.377777v2.275556c0 4.551111-4.551111 11.377778-11.377778 11.377778zM573.44 577.4222219999999c0 9.102222-4.551111 13.653333-11.377778 13.653334h-186.595555c-6.826667 0-11.377778-4.551111-11.377778-11.377778v-2.275556c0-6.826667 4.551111-11.377778 11.377778-11.377778h186.595555c6.826667 0 11.377778 4.551111 11.377778 11.377778z"  horiz-adv-x="1024" />

    
    <glyph glyph-name="liebiaowaijianguanlian" unicode="&#59048;" d="M889.81504 755.4048c-70.3488 73.37984-189.46048 73.37984-259.7888 0l-107.008-110.05952c-12.22656-12.24704-12.22656-33.64864 0-45.8752 12.20608-12.22656 30.57664-12.22656 42.8032 0l107.008 110.08c48.90624 48.92672 125.3376 48.92672 174.1824 0 48.82432-48.92672 48.90624-128.4096 0-177.23392l-174.30528-177.31584c-48.90624-48.9472-125.3376-48.9472-174.16192 0-12.22656 12.20608-30.57664 12.20608-42.8032 0-12.22656-12.24704-12.22656-33.64864 0-45.8752 70.30784-73.37984 189.46048-73.37984 259.7888 0l174.16192 177.23392c73.40032 76.43136 73.40032 195.66592 0.12288 269.04576zM467.98848 165.51936l-106.92608-110.08c-48.90624-48.88576-125.35808-48.88576-174.16192 0-48.90624 48.9472-48.90624 128.43008 0 177.2544l174.16192 177.21344c48.92672 48.92672 125.35808 48.92672 174.16192 0 12.22656-12.22656 30.59712-12.22656 42.82368 0 12.22656 12.22656 12.22656 33.64864 0 45.85472-70.32832 73.37984-189.46048 73.37984-259.7888 0l-174.26432-177.21344c-73.40032-73.40032-70.32832-192.49152 0-265.89184 70.32832-73.35936 189.46048-73.35936 259.76832 0l107.02848 110.03904c12.22656 12.26752 12.22656 33.64864 0 45.8752a32.74752 32.74752 0 0 1-42.8032-3.05152z m0 0"  horiz-adv-x="1024" />

    
    <glyph glyph-name="danchuangdanxuan" unicode="&#58916;" d="M466.589 800c201.909 0 365.588-163.694 365.588-365.62 0-93.184-34.857-178.225-92.241-242.795a32.196 32.196 0 0 0 2.485-2.243l171.122-171.188c12.613-12.618 12.61-33.073-0.01-45.686l-0.011-0.012c-12.634-12.616-33.101-12.606-45.724 0.02L696.676 143.66600000000005a32.542 32.542 0 0 0-3.337 3.91c-62.312-49.352-141.09-78.815-226.75-78.815C264.679 68.75999999999999 101 232.45299999999997 101 434.38 101 636.306 264.68 800 466.589 800z m0-66.203c-165.35 0-299.392-134.054-299.392-299.417 0-165.364 134.042-299.417 299.392-299.417 165.349 0 299.391 134.053 299.391 299.417 0 165.363-134.042 299.417-299.391 299.417z m10.917-136.14c16.272 0 29.508-13.005 29.883-29.188l0.008-0.706-0.001-122.448h118.99c16.508 0 29.89-13.384 29.89-29.894 0-16.273-13.002-29.51-29.185-29.885l-0.705-0.008h-118.99v-121.299c0-16.51-13.382-29.893-29.89-29.893-16.272 0-29.508 13.004-29.883 29.188l-0.008 0.705V385.528H322.878c-16.508 0-29.89 13.384-29.89 29.893 0 16.274 13.002 29.51 29.185 29.886l0.705 0.008h124.737V567.7629999999999c0 16.51 13.383 29.894 29.891 29.894z"  horiz-adv-x="1024" />

    
    <glyph glyph-name="danchuangduoxuan" unicode="&#58927;" d="M576 0c-12.8 0-19.2 0-25.6 6.4l-128 57.6c-25.6 12.8-38.4 38.4-38.4 57.6V307.20000000000005L140.8 665.6c-19.2 32-12.8 70.4 12.8 89.6 12.8 6.4 25.6 12.8 38.4 12.8h640c38.4 0 64-25.6 64-64 0-12.8-6.4-25.6-12.8-38.4L640 313.6V64c0-32-32-64-64-64zM192 704l256-371.2v-211.2l128-57.6V332.79999999999995L832 704H192z"  horiz-adv-x="1024" />

    
    <glyph glyph-name="liebiao-yishoucang" unicode="&#58923;" d="M734.884788-21.693836000000033c-12.551874 0-25.391297 3.421936-38.140669 10.08366L530.383184 75.69421499999999c-7.79657 4.142343-29.245068 4.033873-36.915771 0l-166.378331-87.303368c-31.766494-16.549931-66.360384-11.813047-86.385463 11.921517-9.31004 10.984169-19.413142 30.578436-14.154371 60.975747l31.748074 184.800913c1.619894 9.580193-4.448312 28.237111-11.417027 35.008328L112.465956 412.115338c-21.447475 20.889773-29.53364 47.839565-21.645996 72.15946 7.977695 24.329105 30.43415 41.382503 60.07626 45.723367l185.988972 26.948769c9.616008 1.414209 25.589818 12.921287 29.948079 21.700231l83.143629 168.151721c13.236466 26.850531 36.503379 42.894949 62.093196 42.89495 25.697265 0 48.855708-16.045441 62.199621-42.89495l83.144652-168.151721c4.339842-8.679683 20.2236-20.286022 29.839609-21.700231l185.791473-26.948769c29.642111-4.339842 52.080146-21.394263 60.075237-45.723367 7.995091-24.419156-0.107447-51.378158-21.645996-72.266907L776.952906 281.204799c-6.969739-6.771217-13.037944-25.428136-11.417027-35.026748l31.748074-184.818309c5.258771-30.361495-4.844332-49.954739-14.154371-60.939931-12.029988-14.334473-29.137621-22.113647-48.244794-22.113647z"  horiz-adv-x="1024" />

    
    <glyph glyph-name="lajitong" unicode="&#59019;" d="M661.333333 682.666667V725.333333c0 23.466667-19.2 42.666667-42.666666 42.666667H405.333333c-23.466667 0-42.666667-19.2-42.666666-42.666667v-42.666666H170.666667v-42.666667h64v-597.333333c0-23.466667 19.2-42.666667 42.666666-42.666667h469.333334c23.466667 0 42.666667 19.2 42.666666 42.666667V640h64v42.666667h-192zM405.333333 725.333333h213.333334v-42.666666H405.333333V725.333333z m341.333334-682.666666H277.333333V640h469.333334v-597.333333zM618.666667 554.666667h42.666666v-426.666667h-42.666666zM362.666667 554.666667h42.666666v-426.666667h-42.666666zM490.666667 554.666667h42.666666v-426.666667h-42.666666z"  horiz-adv-x="1024" />

    
    <glyph glyph-name="triangle-copy-copy-copy1" unicode="&#59046;" d="M512 554.666667l-298.666667-298.666667h597.333334z"  horiz-adv-x="1024" />

    
    <glyph glyph-name="cha1" unicode="&#59067;" d="M874.65664271 707.45509167l-686.12476629-686.12476556a27.71970118 27.71970118 0 0 0-39.20154959 39.20154958l686.12476629 686.12476629a27.71970118 27.71970118 0 1 0 39.2015496-39.20155031zM874.65664271 21.343344979999983a27.71839908 27.71839908 0 0 0-39.20154959 0l-686.12476629 686.12476629A27.71970118 27.71970118 0 0 0 188.53187641 746.66966086l686.12476631-686.12476557a27.71839908 27.71839908 0 0 0 0-39.20155031z"  horiz-adv-x="1024" />

    
    <glyph glyph-name="qingkong" unicode="&#58952;" d="M1024.4 433.4c0 58.9-47.9 106.9-106.9 106.9H664.1V751.8c0 72.6-59 131.6-131.6 131.6H497.2c-72.6 0-131.6-59-131.6-131.6v-211.5H106.8C47.9 540.3 0 492.4 0 433.4c0-48.1 32.2-88.4 76-101.8v-373c0-47.4 38.5-85.9 85.9-85.9h707.2c47.4 0 85.9 38.5 85.9 85.9V333.70000000000005c40.4 15.2 69.4 54 69.4 99.7zM431.7 751.8c0 36.1 29.4 65.5 65.5 65.5h35.3c36.1 0 65.5-29.4 65.5-65.5v-211.5H431.7V751.8z m437.4-813H760V74.29999999999995c0 18.3-14.8 33-33 33s-33-14.8-33-33v-135.5H548.6V74.29999999999995c0 18.3-14.8 33-33 33-18.3 0-33-14.8-33-33v-135.5H337.1V74.29999999999995c0 18.3-14.8 33-33 33-18.3 0-33-14.8-33-33v-135.5H161.9c-10.9 0-19.8 8.9-19.8 19.8v368h746.8v-367.9c0-11-8.9-19.9-19.8-19.9z m48.5 453.9H106.8c-22.5 0-40.7 18.3-40.7 40.7 0 22.5 18.3 40.8 40.7 40.8h810.7c22.5 0 40.8-18.3 40.8-40.8 0-22.5-18.3-40.7-40.7-40.7z"  horiz-adv-x="1024" />

    
    <glyph glyph-name="tishi" unicode="&#58929;" d="M510.693238 767.575072c-210.495108 0-381.145743-170.624029-381.145743-381.145743 0-210.523761 170.650635-381.148813 381.145743-381.148813 210.521714 0 381.148813 170.624029 381.148813 381.148813C891.842051 596.951043 721.214952 767.575072 510.693238 767.575072zM564.968375 109.87366599999996L454.801277 109.87366599999996 454.801277 216.11024499999996l110.166075 0L564.967352 109.87366599999996zM538.241664 260.218836l-55.891961 0c-21.667485 130.932028-32.502251 242.252393-32.502251 333.905836 0 21.670555 0.48607 41.232077 1.540076 58.896388l116.246561 0c1.540076-18.639522 2.287089-39.023782 2.287089-61.204967C569.923224 501.753891 559.344285 391.150864 538.241664 260.218836z"  horiz-adv-x="1024" />

    
    <glyph glyph-name="caution" unicode="&#58898;" d="M697.56928 801.46432c-35.36896 60.928-83.49696 94.53568-135.51616 94.53568s-100.18816-33.60768-135.55712-94.53568l-392.6016-676.2496c-35.84-62.30016-39.69024-127.01696-10.56768-177.47968 27.70944-48.00512 82.08384-75.61216 149.23776-75.73504l778.91584 0c0 0 0 0 0.04096 0 67.25632 0.12288 121.73312 27.648 149.34016 75.55072 28.95872 50.13504 25.04704 114.5856-10.71104 176.80384l-392.58112 677.13024zM1073.19296-36.4544c-21.79072-37.76512-66.1504-59.45344-121.73312-59.55584l-778.8544 0c-55.3984 0.1024-99.67616 21.89312-121.56928 59.74016-23.26528 40.32512-19.39456 93.34784 10.56768 145.46944l392.58112 676.18816c29.40928 50.688 67.70688 78.60224 107.86816 78.60224s78.45888-27.89376 107.84768-78.60224l392.58112-677.02784c29.92128-52.03968 33.83296-104.83712 10.71104-144.83456zM562.05312 256c8.82688 0 15.99488 7.168 15.99488 15.99488l0 320c0 8.82688-7.168 15.99488-15.99488 15.99488s-15.99488-7.168-15.99488-15.99488l0-320c0-8.82688 7.168-15.99488 15.99488-15.99488zM560.00512 176.00512c-35.28704 0-64-28.71296-64-64s28.71296-64 64-64 64 28.71296 64 64-28.71296 64-64 64zM560.00512 79.99488c-17.63328 0-32.01024 14.336-32.01024 32.01024s14.37696 32.01024 32.01024 32.01024 32.01024-14.336 32.01024-32.01024-14.37696-32.01024-32.01024-32.01024z"  horiz-adv-x="1127" />

    


  </font>
</defs>
</svg>
